<?xml version="1.0" encoding="UTF-8" standalone="no"?>
<!-- Created with Inkscape (http://www.inkscape.org/) -->

<svg
   width="165.83986mm"
   height="28.939394mm"
   viewBox="0 0 165.83986 28.939393"
   version="1.1"
   id="svg4726"
   inkscape:version="1.2.1 (9c6d41e410, 2022-07-14)"
   sodipodi:docname="ExCL-Logo-h-green.svg"
   inkscape:export-filename="ExCL-Logo-h-green.png"
   inkscape:export-xdpi="52.661781"
   inkscape:export-ydpi="52.661781"
   xmlns:inkscape="http://www.inkscape.org/namespaces/inkscape"
   xmlns:sodipodi="http://sodipodi.sourceforge.net/DTD/sodipodi-0.dtd"
   xmlns="http://www.w3.org/2000/svg"
   xmlns:svg="http://www.w3.org/2000/svg">
  <sodipodi:namedview
     id="namedview4728"
     pagecolor="#ffffff"
     bordercolor="#666666"
     borderopacity="1.0"
     inkscape:showpageshadow="2"
     inkscape:pageopacity="0.0"
     inkscape:pagecheckerboard="0"
     inkscape:deskcolor="#d1d1d1"
     inkscape:document-units="mm"
     showgrid="false"
     showguides="true"
     inkscape:zoom="2.3786088"
     inkscape:cx="364.07837"
     inkscape:cy="108.46677"
     inkscape:window-width="3440"
     inkscape:window-height="1387"
     inkscape:window-x="2552"
     inkscape:window-y="-8"
     inkscape:window-maximized="1"
     inkscape:current-layer="layer1" />
  <defs
     id="defs4723" />
  <g
     inkscape:label="Layer 1"
     inkscape:groupmode="layer"
     id="layer1"
     transform="translate(-428.32492,-288.00717)">
    <rect
       style="font-variation-settings:normal;opacity:1;vector-effect:none;fill:#ffffff;fill-opacity:1;fill-rule:evenodd;stroke:none;stroke-width:0.352776;stroke-linecap:square;stroke-linejoin:miter;stroke-miterlimit:4;stroke-dasharray:none;stroke-dashoffset:0;stroke-opacity:1;-inkscape-stroke:none;stop-color:#000000;stop-opacity:1"
       id="rect2114"
       width="165.83986"
       height="28.939394"
       x="428.32492"
       y="288.00717" />
    <path
       style="fill:none;stroke:#007833;stroke-width:4;stroke-linecap:square;stroke-dasharray:none;stop-color:#000000;stroke-opacity:1"
       d="m 444.58052,290.03337 -13.13248,0.0469 v 24.93353"
       id="path4843"
       sodipodi:nodetypes="ccc" />
    <path
       style="fill:none;stroke:#007833;stroke-width:4;stroke-linecap:square;stroke-dasharray:none;stop-color:#000000;stroke-opacity:1"
       d="m 432.46981,302.54708 12.11071,-0.0469"
       id="path4845"
       sodipodi:nodetypes="cc" />
    <path
       style="fill:none;stroke:#007833;stroke-width:4;stroke-linecap:square;stroke-dasharray:none;stop-color:#000000;stroke-opacity:1"
       d="m 432.26731,315.01385 12.31321,-0.0469"
       id="path4847"
       sodipodi:nodetypes="cc" />
    <path
       style="fill:none;stroke:#007833;stroke-width:4;stroke-linecap:square;stroke-dasharray:none;stop-color:#000000;stroke-opacity:1"
       d="m 450.76969,300.50013 13.44503,16.46676"
       id="path4849"
       sodipodi:nodetypes="cc" />
    <path
       style="fill:none;stroke:#007833;stroke-width:4;stroke-linecap:square;stroke-dasharray:none;stop-color:#000000;stroke-opacity:1"
       d="m 450.76969,316.96689 13.44503,-16.46676"
       id="path4851"
       sodipodi:nodetypes="cc" />
    <path
       style="fill:none;stroke:#007833;stroke-width:4;stroke-linecap:square;stroke-dasharray:none;stop-color:#000000;stroke-opacity:1"
       d="m 483.48734,290.03337 c -11.92857,0.15726 -12.98432,0.38936 -13.13533,11.05099 -0.20499,14.47249 -0.41641,13.88254 13.13533,13.88254"
       id="path4853"
       sodipodi:nodetypes="csc" />
    <path
       style="fill:none;stroke:#007833;stroke-width:4;stroke-linecap:square;stroke-dasharray:none;stop-color:#000000;stroke-opacity:1"
       d="m 490.50405,290.03337 v 24.93352 l 13.44995,1e-5"
       id="path4855"
       sodipodi:nodetypes="ccc" />
    <rect
       style="font-variation-settings:normal;fill:#ffffff;fill-opacity:1;fill-rule:evenodd;stroke:none;stroke-width:0.352777;stroke-linecap:square;stroke-linejoin:miter;stroke-miterlimit:4;stroke-dasharray:none;stroke-dashoffset:0;stroke-opacity:1;stop-color:#000000"
       id="rect4857"
       width="23.329723"
       height="5.0395842"
       x="443.65778"
       y="295.46054" />
    <rect
       style="font-variation-settings:normal;fill:#ffffff;fill-opacity:1;fill-rule:evenodd;stroke:none;stroke-width:0.352777;stroke-linecap:square;stroke-linejoin:miter;stroke-miterlimit:4;stroke-dasharray:none;stroke-dashoffset:0;stroke-opacity:1;stop-color:#000000"
       id="rect4859"
       width="26.221827"
       height="5.0395842"
       x="446.83478"
       y="316.96689" />
    <g
       id="g5600"
       transform="translate(256.03334,-99.15792)">
      <path
         style="color:#000000;fill:#007833;stroke-linecap:square;-inkscape-stroke:none;fill-opacity:1"
         d="m 281.00586,392.31055 c -1.25695,0 -2.28971,0.51576 -3.15625,1.23047 -0.86654,0.7147 -1.5987,1.62464 -2.36133,2.51171 -1.52526,1.77415 -3.09143,3.42198 -5.9043,3.5 l -0.52929,0.0156 0.0293,1.05664 0.5293,-0.0137 c 3.2243,-0.0894 5.12617,-2.06245 6.67774,-3.86719 0.77578,-0.90237 1.48445,-1.76981 2.23242,-2.38672 0.74797,-0.61691 1.50464,-0.98828 2.48242,-0.98828 h 30.35156 c 0.93648,0 1.72003,0.38119 2.53516,1.01953 0.81513,0.63834 1.63125,1.53043 2.55078,2.44727 1.83905,1.83368 4.16364,3.77539 7.87109,3.77539 h 0.5293 v -1.0586 h -0.5293 c -3.34523,0 -5.33268,-1.67971 -7.125,-3.46679 -0.89616,-0.89354 -1.72583,-1.81181 -2.64453,-2.53125 -0.91869,-0.71945 -1.95638,-1.24414 -3.1875,-1.24414 z"
         id="path5558" />
      <path
         style="color:#000000;fill:#007833;stroke-linecap:square;-inkscape-stroke:none;fill-opacity:1"
         d="m 257.23828,399.55273 v 1.0586 h 0.5293 78.04297 0.52929 v -1.0586 h -0.52929 -78.04297 z"
         id="path5560" />
      <path
         style="color:#000000;fill:#007833;stroke-linecap:square;-inkscape-stroke:none;fill-opacity:1"
         d="m 258.49023,399.55273 v 1.0586 h 0.5293 4.06055 c 0.43367,0 0.7525,0.20734 1.10937,0.64062 0.35688,0.43328 0.69106,1.07283 1.03321,1.74024 0.34214,0.66741 0.69245,1.3638 1.16015,1.93164 0.4677,0.56783 1.11402,1.02734 1.92578,1.02734 H 314.75 c 2.04434,0 3.99648,-1.43081 5.91016,-2.76562 1.91367,-1.33482 3.78951,-2.57422 5.30468,-2.57422 h 2.43164 0.5293 v -1.0586 h -0.5293 -2.43164 c -2.04433,0 -3.99648,1.43081 -5.91015,2.76563 -1.91368,1.33482 -3.78952,2.57422 -5.30469,2.57422 h -46.44141 c -0.43367,0 -0.7525,-0.2093 -1.10937,-0.64258 -0.35687,-0.43328 -0.69301,-1.07283 -1.03516,-1.74023 -0.34214,-0.66741 -0.6905,-1.36186 -1.1582,-1.92969 -0.4677,-0.56784 -1.11402,-1.02735 -1.92578,-1.02735 h -4.06055 z"
         id="path5562" />
      <path
         style="color:#000000;fill:#007833;stroke-linecap:square;-inkscape-stroke:none;fill-opacity:1"
         d="m 334.26172,399.55273 c -1.40313,0 -2.87464,0.71732 -4.41602,1.72266 -1.54138,1.00534 -3.1514,2.32394 -4.7539,3.63281 -1.6025,1.30887 -3.19727,2.60844 -4.66602,3.56641 -1.46875,0.95797 -2.81354,1.54883 -3.83594,1.54883 h -8.56054 c -1.36738,0 -2.55141,-1.12724 -3.83399,-2.41016 -1.28258,-1.28292 -2.66368,-2.7207 -4.58203,-2.7207 h -4.85937 c -1.89161,0 -3.23279,1.44364 -4.47461,2.72656 -1.24183,1.28292 -2.38329,2.4043 -3.71289,2.4043 h -5.98633 c -0.41621,0 -0.72603,-0.19848 -1.07422,-0.61328 -0.3482,-0.4148 -0.67643,-1.02846 -1.01367,-1.66993 -0.33725,-0.64146 -0.68309,-1.31003 -1.14258,-1.85742 -0.45949,-0.54739 -1.09173,-0.99023 -1.88281,-0.99023 h -5.03321 -0.52929 v 1.05859 h 0.52929 5.03321 c 0.41621,0 0.72407,0.19653 1.07226,0.61133 0.3482,0.4148 0.67838,1.03041 1.01563,1.67187 0.33724,0.64147 0.68113,1.31004 1.14062,1.85743 0.4595,0.54739 1.09368,0.99023 1.88477,0.99023 h 5.98633 c 1.89161,0 3.23083,-1.44364 4.47265,-2.72656 1.24183,-1.28292 2.38524,-2.4043 3.71485,-2.4043 h 4.85937 c 1.36738,0 2.55141,1.12723 3.83399,2.41016 1.28257,1.28292 2.66368,2.7207 4.58203,2.7207 h 8.56054 c 1.40313,0 2.87268,-0.71732 4.41407,-1.72266 1.54138,-1.00533 3.15336,-2.32394 4.75586,-3.63281 1.6025,-1.30887 3.19531,-2.60648 4.66406,-3.56445 1.46875,-0.95797 2.81549,-1.55078 3.83789,-1.55078 h 1.54883 0.52929 v -1.0586 h -0.52929 z"
         id="path5564" />
      <path
         style="color:#000000;fill:#007833;stroke-linecap:square;-inkscape-stroke:none;fill-opacity:1"
         d="m 285.75977,395.9375 c -0.65967,0 -1.21468,0.30966 -1.64844,0.70117 -0.43376,0.39151 -0.7804,0.87101 -1.11133,1.32422 -0.33093,0.45322 -0.6453,0.88105 -0.95313,1.16797 -0.30782,0.28692 -0.57163,0.42187 -0.88085,0.42187 h -7.2129 -0.52929 v 1.0586 h 0.52929 7.2129 c 0.64383,0 1.18201,-0.31597 1.60156,-0.70703 0.41955,-0.39107 0.75874,-0.86759 1.08789,-1.31836 0.32914,-0.45077 0.64744,-0.87563 0.96484,-1.16211 0.3174,-0.28648 0.59849,-0.42773 0.93946,-0.42774 6.36779,-4e-5 12.73572,-3e-5 19.10351,0 1.45419,1e-5 2.26075,0.75899 3.16406,1.6543 0.90332,0.89531 1.90368,1.96094 3.52539,1.96094 h 5.70899 0.5293 v -1.0586 h -0.5293 -5.70899 c -1.16375,0 -1.86042,-0.74163 -2.78125,-1.65429 -0.92083,-0.91267 -2.06692,-1.96093 -3.9082,-1.96094 -6.36779,-3e-5 -12.73572,-4e-5 -19.10351,0 z"
         id="path5566" />
      <path
         style="color:#000000;fill:#007833;stroke-linecap:square;-inkscape-stroke:none;fill-opacity:1"
         d="m 291.24219,399.55273 c -2.04434,0 -3.56229,1.47769 -4.98438,2.8125 -1.42209,1.33482 -2.74849,2.52735 -4.26367,2.52735 h -9.04492 -0.5293 v 1.05859 h 0.5293 9.04492 c 2.04434,0 3.56424,-1.47963 4.98633,-2.81445 1.42209,-1.33482 2.74655,-2.52539 4.26172,-2.52539 h 8.92187 0.5293 v -1.0586 h -0.5293 z"
         id="path5568" />
      <g
         id="g5574"
         transform="matrix(1.2732565,0,0,1.2341525,155.9165,-93.680235)"
         style="stroke-width:0.797733;fill:#007833;fill-opacity:1">
        <path
           style="color:#000000;fill:#007833;stroke-linecap:round;-inkscape-stroke:none;fill-opacity:1"
           d="m 139.47461,397.18945 a 0.3988665,0.3988665 0 0 0 -0.28125,0.11719 0.3988665,0.3988665 0 0 0 0,0.56445 l 2.49414,2.49219 a 0.3988665,0.3988665 0 0 0 0.56445,0 0.3988665,0.3988665 0 0 0 0,-0.5625 l -2.49414,-2.49414 a 0.3988665,0.3988665 0 0 0 -0.2832,-0.11719 z"
           id="path5570" />
        <path
           style="color:#000000;fill:#007833;stroke-linecap:round;-inkscape-stroke:none;fill-opacity:1"
           d="m 141.96875,399.68359 a 0.3988665,0.3988665 0 0 0 -0.28125,0.11719 l -2.49414,2.49414 a 0.3988665,0.3988665 0 0 0 0,0.5625 0.3988665,0.3988665 0 0 0 0.56445,0 l 2.49414,-2.49414 a 0.3988665,0.3988665 0 0 0 0,-0.5625 0.3988665,0.3988665 0 0 0 -0.2832,-0.11719 z"
           id="path5572" />
      </g>
      <g
         id="path5576"
         inkscape:transform-center-x="-0.43659976"
         inkscape:transform-center-y="-1.9289892e-06"
         transform="matrix(0.13987207,0,0,0.13987207,139.2196,205.39403)"
         style="fill:#007833;fill-opacity:1">
        <path
           style="color:#000000;fill:#007833;fill-rule:evenodd;stroke-width:0.667316;stroke-linecap:square;-inkscape-stroke:none;fill-opacity:1"
           d="m 1127.2762,1366.0665 -9.3643,5.4065 -9.3642,5.4064 v -10.8129 -10.8129 l 9.3642,5.4065 z"
           id="path2693" />
        <path
           style="color:#000000;fill:#007833;fill-rule:evenodd;stroke-linecap:square;-inkscape-stroke:none;fill-opacity:1"
           d="m 1108.2148,1354.6758 v 11.3906 11.3906 l 9.8633,-5.6953 9.8653,-5.6953 -0.5,-0.2891 -9.3653,-5.4062 z m 0.6661,1.1562 8.8632,5.1172 8.8653,5.1172 -8.8653,5.1172 -8.8632,5.1172 v -10.2344 z"
           id="path2695" />
      </g>
      <g
         id="circle5578"
         style="fill:#007833;fill-opacity:1">
        <path
           style="color:#000000;fill:#007833;fill-rule:evenodd;stroke-width:0.352777;stroke-linecap:square;-inkscape-stroke:none;fill-opacity:1"
           d="m 298.55538,405.42139 a 1.3764513,1.3764513 0 0 1 -1.37646,1.37645 1.3764513,1.3764513 0 0 1 -1.37645,-1.37645 1.3764513,1.3764513 0 0 1 1.37645,-1.37645 1.3764513,1.3764513 0 0 1 1.37646,1.37645 z"
           id="path2699" />
        <path
           style="color:#000000;fill:#007833;fill-rule:evenodd;stroke-linecap:square;-inkscape-stroke:none;fill-opacity:1"
           d="m 297.17969,403.86914 c -0.85552,0 -1.55274,0.69722 -1.55274,1.55273 0,0.85552 0.69722,1.55274 1.55274,1.55274 0.85552,0 1.55273,-0.69721 1.55273,-1.55274 0,-0.85552 -0.69721,-1.55273 -1.55273,-1.55273 z m 0,0.35156 c 0.66487,0 1.19922,0.53631 1.19922,1.20117 0,0.66487 -0.53435,1.19923 -1.19922,1.19922 -0.66487,0 -1.20117,-0.53435 -1.20117,-1.19922 0,-0.66486 0.5363,-1.20117 1.20117,-1.20117 z"
           id="path2701" />
      </g>
      <g
         id="path5580"
         inkscape:transform-center-x="6.4644089e-06"
         inkscape:transform-center-y="-0.49422649"
         transform="matrix(0.21862313,0,0,-0.21857779,48.634314,696.72524)"
         style="fill:#007833;fill-opacity:1">
        <path
           style="color:#000000;fill:#007833;fill-rule:evenodd;stroke-width:0.426984;stroke-linecap:square;-inkscape-stroke:none;fill-opacity:1"
           d="m 1157.3992,1363.8278 -3.9164,-6.7833 -3.9163,-6.7833 h 7.8327 7.8326 l -3.9163,6.7833 z"
           id="path2705" />
        <path
           style="color:#000000;fill:#007833;fill-rule:evenodd;stroke-linecap:square;-inkscape-stroke:none;fill-opacity:1"
           d="m 1149.1973,1350.0469 4.1015,7.1035 4.0996,7.1035 0.1856,-0.3203 3.916,-6.7832 4.1016,-7.1035 h -8.2032 z m 0.7402,0.4277 h 7.4609 7.4629 l -3.7304,6.4629 -3.7325,6.4629 -3.7304,-6.4629 z"
           id="path2707" />
      </g>
      <g
         id="rect5582"
         style="fill:#007833;fill-opacity:1">
        <path
           style="color:#000000;fill:#007833;fill-rule:evenodd;stroke-width:0.352777;stroke-linecap:square;-inkscape-stroke:none;fill-opacity:1"
           d="m 288.15302,391.34616 h 2.75291 v 2.75291 h -2.75291 z"
           id="path2711" />
        <path
           style="color:#000000;fill:#007833;fill-rule:evenodd;stroke-linecap:square;-inkscape-stroke:none;fill-opacity:1"
           d="m 287.97656,391.16992 v 0.17578 2.92969 h 3.10547 v -3.10547 z m 0.35352,0.35352 h 2.40039 v 2.39843 h -2.40039 z"
           id="path2713" />
      </g>
      <g
         id="path5584"
         inkscape:transform-center-x="-0.43659976"
         inkscape:transform-center-y="-1.9289892e-06"
         transform="matrix(0.13987207,0,0,0.13987207,157.25504,219.47853)"
         style="fill:#007833;fill-opacity:1">
        <path
           style="color:#000000;fill:#007833;fill-rule:evenodd;stroke-width:0.667316;stroke-linecap:square;-inkscape-stroke:none;fill-opacity:1"
           d="m 1127.2762,1366.0665 -9.3643,5.4065 -9.3642,5.4064 v -10.8129 -10.8129 l 9.3642,5.4065 z"
           id="path2717" />
        <path
           style="color:#000000;fill:#007833;fill-rule:evenodd;stroke-linecap:square;-inkscape-stroke:none;fill-opacity:1"
           d="m 1108.2148,1354.6758 v 11.3906 11.3906 l 9.8633,-5.6953 9.8653,-5.6953 -0.5,-0.2891 -9.3653,-5.4062 z m 0.6661,1.1562 8.8632,5.1172 8.8653,5.1172 -8.8653,5.1172 -8.8632,5.1172 v -10.2344 z"
           id="path2719" />
      </g>
      <g
         id="rect5586"
         style="fill:#007833;fill-opacity:1">
        <path
           style="color:#000000;fill:#007833;fill-rule:evenodd;stroke-width:0.352777;stroke-linecap:square;-inkscape-stroke:none;fill-opacity:1"
           d="m 282.43433,409.17664 h 2.75291 v 2.75291 h -2.75291 z"
           id="path2723" />
        <path
           style="color:#000000;fill:#007833;fill-rule:evenodd;stroke-linecap:square;-inkscape-stroke:none;fill-opacity:1"
           d="m 282.25781,409 v 0.17578 2.92969 h 3.10547 V 409 Z m 0.35352,0.35352 h 2.40039 v 2.40039 h -2.40039 z"
           id="path2725" />
      </g>
      <g
         id="path5588"
         inkscape:transform-center-x="6.4644089e-06"
         inkscape:transform-center-y="-0.49422649"
         transform="matrix(0.21862313,0,0,-0.21857779,19.059369,702.04118)"
         style="fill:#007833;fill-opacity:1">
        <path
           style="color:#000000;fill:#007833;fill-rule:evenodd;stroke-width:0.426984;stroke-linecap:square;-inkscape-stroke:none;fill-opacity:1"
           d="m 1157.3992,1363.8278 -3.9164,-6.7833 -3.9163,-6.7833 h 7.8327 7.8326 l -3.9163,6.7833 z"
           id="path2729" />
        <path
           style="color:#000000;fill:#007833;fill-rule:evenodd;stroke-linecap:square;-inkscape-stroke:none;fill-opacity:1"
           d="m 1149.1973,1350.0469 4.1015,7.1035 4.0996,7.1035 0.1856,-0.3203 3.916,-6.7832 4.1016,-7.1035 h -8.2032 z m 0.7402,0.4277 h 7.4609 7.4629 l -3.7304,6.4629 -3.7325,6.4629 -3.7304,-6.4629 z"
           id="path2731" />
      </g>
      <g
         id="path5590"
         inkscape:transform-center-x="-0.43659976"
         inkscape:transform-center-y="-1.9289892e-06"
         transform="matrix(0.13987207,0,0,0.13987207,104.07089,208.96698)"
         style="fill:#007833;fill-opacity:1">
        <path
           style="color:#000000;fill:#007833;fill-rule:evenodd;stroke-width:0.667316;stroke-linecap:square;-inkscape-stroke:none;fill-opacity:1"
           d="m 1127.2762,1366.0665 -9.3643,5.4065 -9.3642,5.4064 v -10.8129 -10.8129 l 9.3642,5.4065 z"
           id="path2735" />
        <path
           style="color:#000000;fill:#007833;fill-rule:evenodd;stroke-linecap:square;-inkscape-stroke:none;fill-opacity:1"
           d="m 1108.2148,1354.6758 v 11.3906 11.3906 l 9.8633,-5.6953 9.8653,-5.6953 -0.5,-0.2891 -9.3653,-5.4062 z m 0.6661,1.1562 8.8632,5.1172 8.8653,5.1172 -8.8653,5.1172 -8.8632,5.1172 v -10.2344 z"
           id="path2737" />
      </g>
      <g
         id="circle5592"
         style="fill:#007833;fill-opacity:1">
        <path
           style="color:#000000;fill:#007833;fill-rule:evenodd;stroke-width:0.352777;stroke-linecap:square;-inkscape-stroke:none;fill-opacity:1"
           d="m 279.25478,400.08212 a 1.3764513,1.3764513 0 0 1 -1.37645,1.37645 1.3764513,1.3764513 0 0 1 -1.37645,-1.37645 1.3764513,1.3764513 0 0 1 1.37645,-1.37645 1.3764513,1.3764513 0 0 1 1.37645,1.37645 z"
           id="path2741" />
        <path
           style="color:#000000;fill:#007833;fill-rule:evenodd;stroke-linecap:square;-inkscape-stroke:none;fill-opacity:1"
           d="m 277.87891,398.5293 c -0.85552,0 -1.55274,0.69721 -1.55274,1.55273 0,0.85552 0.69722,1.55273 1.55274,1.55274 0.85551,-10e-6 1.55273,-0.69722 1.55273,-1.55274 0,-0.85552 -0.69722,-1.55273 -1.55273,-1.55273 z m 0,0.35351 c 0.66486,0 1.19921,0.53436 1.19921,1.19922 0,0.66487 -0.53435,1.19922 -1.19921,1.19922 -0.66487,0 -1.20117,-0.53435 -1.20118,-1.19922 10e-6,-0.66486 0.53631,-1.19922 1.20118,-1.19922 z"
           id="path2743" />
      </g>
      <g
         id="circle5594"
         style="fill:#007833;fill-opacity:1">
        <path
           style="color:#000000;fill:#007833;fill-rule:evenodd;stroke-width:0.352777;stroke-linecap:square;-inkscape-stroke:none;fill-opacity:1"
           d="m 316.56758,400.08228 a 1.3764513,1.3764513 0 0 1 -1.37645,1.37645 1.3764513,1.3764513 0 0 1 -1.37645,-1.37645 1.3764513,1.3764513 0 0 1 1.37645,-1.37646 1.3764513,1.3764513 0 0 1 1.37645,1.37646 z"
           id="path2747" />
        <path
           style="color:#000000;fill:#007833;fill-rule:evenodd;stroke-linecap:square;-inkscape-stroke:none;fill-opacity:1"
           d="m 315.19141,398.5293 c -0.85553,0 -1.55274,0.69721 -1.55274,1.55273 0,0.85552 0.69722,1.55273 1.55274,1.55274 0.85551,-10e-6 1.55273,-0.69722 1.55273,-1.55274 10e-6,-0.85552 -0.69721,-1.55273 -1.55273,-1.55273 z m 0,0.35351 c 0.66486,0 1.19922,0.53435 1.19921,1.19922 0,0.66487 -0.53435,1.20117 -1.19921,1.20117 -0.66487,0 -1.20117,-0.5363 -1.20118,-1.20117 0,-0.66487 0.53631,-1.19922 1.20118,-1.19922 z"
           id="path2749" />
      </g>
      <g
         id="path5596"
         inkscape:transform-center-x="-0.43659976"
         inkscape:transform-center-y="-1.9289892e-06"
         transform="matrix(0.13987207,0,0,0.13987207,170.88392,209.00772)"
         style="fill:#007833;fill-opacity:1">
        <path
           style="color:#000000;fill:#007833;fill-rule:evenodd;stroke-width:0.667316;stroke-linecap:square;-inkscape-stroke:none;fill-opacity:1"
           d="m 1127.2762,1366.0665 -9.3643,5.4065 -9.3642,5.4064 v -10.8129 -10.8129 l 9.3642,5.4065 z"
           id="path2753" />
        <path
           style="color:#000000;fill:#007833;fill-rule:evenodd;stroke-linecap:square;-inkscape-stroke:none;fill-opacity:1"
           d="m 1108.2148,1354.6758 v 11.3906 11.3906 l 9.8633,-5.6953 9.8653,-5.6953 -0.5,-0.2891 -9.3653,-5.4062 z m 0.6661,1.1562 8.8632,5.1172 8.8653,5.1172 -8.8653,5.1172 -8.8632,5.1172 v -10.2344 z"
           id="path2755" />
      </g>
      <g
         id="rect5598"
         style="fill:#007833;fill-opacity:1">
        <path
           style="color:#000000;fill:#007833;fill-rule:evenodd;stroke-width:0.352777;stroke-linecap:square;-inkscape-stroke:none;fill-opacity:1"
           d="m 307.38519,403.94113 h 2.75292 v 2.75291 h -2.75292 z"
           id="path2759" />
        <path
           style="color:#000000;fill:#007833;fill-rule:evenodd;stroke-linecap:square;-inkscape-stroke:none;fill-opacity:1"
           d="m 307.20898,403.76562 v 0.17579 2.92968 h 3.10547 v -3.10547 z m 0.35352,0.35157 h 2.39844 v 2.40039 h -2.39844 z"
           id="path2761" />
      </g>
    </g>
  </g>
</svg>
