<?xml version="1.0" encoding="UTF-8" standalone="no"?>
<!-- Created with Inkscape (http://www.inkscape.org/) -->

<svg
   width="327.42969mm"
   height="33.315563mm"
   viewBox="0 0 327.42969 33.315562"
   version="1.1"
   id="svg4726"
   inkscape:version="1.2.1 (9c6d41e410, 2022-07-14)"
   sodipodi:docname="ExCL-Logo-h-green.svg"
   inkscape:export-filename="ExCL-Logo-h-green.png"
   inkscape:export-xdpi="52.581169"
   inkscape:export-ydpi="52.581169"
   xmlns:inkscape="http://www.inkscape.org/namespaces/inkscape"
   xmlns:sodipodi="http://sodipodi.sourceforge.net/DTD/sodipodi-0.dtd"
   xmlns="http://www.w3.org/2000/svg"
   xmlns:svg="http://www.w3.org/2000/svg">
  <sodipodi:namedview
     id="namedview4728"
     pagecolor="#ffffff"
     bordercolor="#666666"
     borderopacity="1.0"
     inkscape:showpageshadow="2"
     inkscape:pageopacity="0.0"
     inkscape:pagecheckerboard="0"
     inkscape:deskcolor="#d1d1d1"
     inkscape:document-units="mm"
     showgrid="false"
     showguides="true"
     inkscape:zoom="4"
     inkscape:cx="506.25"
     inkscape:cy="109.75"
     inkscape:window-width="2560"
     inkscape:window-height="1387"
     inkscape:window-x="-8"
     inkscape:window-y="-8"
     inkscape:window-maximized="1"
     inkscape:current-layer="layer1" />
  <defs
     id="defs4723" />
  <g
     inkscape:label="Layer 1"
     inkscape:groupmode="layer"
     id="layer1"
     transform="translate(-267.06885,-287.00406)">
    <rect
       style="font-variation-settings:normal;opacity:1;fill:#ffffff;fill-opacity:1;fill-rule:evenodd;stroke:none;stroke-width:0.352775;stroke-linecap:square;stroke-linejoin:miter;stroke-miterlimit:4;stroke-dasharray:none;stroke-dashoffset:0;stroke-opacity:1;stop-color:#000000;stop-opacity:1"
       id="rect2114"
       width="327.42969"
       height="33.315563"
       x="267.06885"
       y="287.00406" />
    <path
       style="fill:none;stroke:#007833;stroke-width:4;stroke-linecap:square;stroke-dasharray:none;stroke-opacity:1;stop-color:#000000"
       d="m 444.58052,290.03337 -13.13248,0.0469 v 24.93353"
       id="path4843"
       sodipodi:nodetypes="ccc" />
    <path
       style="fill:none;stroke:#007833;stroke-width:4;stroke-linecap:square;stroke-dasharray:none;stroke-opacity:1;stop-color:#000000"
       d="m 432.46981,302.54708 12.11071,-0.0469"
       id="path4845"
       sodipodi:nodetypes="cc" />
    <path
       style="fill:none;stroke:#007833;stroke-width:4;stroke-linecap:square;stroke-dasharray:none;stroke-opacity:1;stop-color:#000000"
       d="m 432.26731,315.01385 12.31321,-0.0469"
       id="path4847"
       sodipodi:nodetypes="cc" />
    <path
       style="fill:none;stroke:#007833;stroke-width:4;stroke-linecap:square;stroke-dasharray:none;stroke-opacity:1;stop-color:#000000"
       d="m 450.76969,300.50013 13.44503,16.46676"
       id="path4849"
       sodipodi:nodetypes="cc" />
    <path
       style="fill:none;stroke:#007833;stroke-width:4;stroke-linecap:square;stroke-dasharray:none;stroke-opacity:1;stop-color:#000000"
       d="m 450.76969,316.96689 13.44503,-16.46676"
       id="path4851"
       sodipodi:nodetypes="cc" />
    <path
       style="fill:none;stroke:#007833;stroke-width:4;stroke-linecap:square;stroke-dasharray:none;stroke-opacity:1;stop-color:#000000"
       d="m 483.48734,290.03337 c -11.92857,0.15726 -12.98432,0.38936 -13.13533,11.05099 -0.20499,14.47249 -0.41641,13.88254 13.13533,13.88254"
       id="path4853"
       sodipodi:nodetypes="csc" />
    <path
       style="fill:none;stroke:#007833;stroke-width:4;stroke-linecap:square;stroke-dasharray:none;stroke-opacity:1;stop-color:#000000"
       d="m 490.50405,290.03337 v 24.93352 l 13.44995,1e-5"
       id="path4855"
       sodipodi:nodetypes="ccc" />
    <rect
       style="font-variation-settings:normal;fill:#ffffff;fill-opacity:1;fill-rule:evenodd;stroke:none;stroke-width:0.352777;stroke-linecap:square;stroke-linejoin:miter;stroke-miterlimit:4;stroke-dasharray:none;stroke-dashoffset:0;stroke-opacity:1;stop-color:#000000"
       id="rect4857"
       width="23.329723"
       height="5.0395842"
       x="443.65778"
       y="295.46054" />
    <rect
       style="font-variation-settings:normal;fill:#ffffff;fill-opacity:1;fill-rule:evenodd;stroke:none;stroke-width:0.352777;stroke-linecap:square;stroke-linejoin:miter;stroke-miterlimit:4;stroke-dasharray:none;stroke-dashoffset:0;stroke-opacity:1;stop-color:#000000"
       id="rect4859"
       width="26.221827"
       height="5.0395842"
       x="446.83478"
       y="316.96689" />
    <g
       id="g5600"
       transform="translate(256.03334,-99.15792)">
      <path
         style="color:#000000;fill:#007833;fill-opacity:1;stroke-linecap:square;-inkscape-stroke:none"
         d="m 281.00586,392.31055 c -1.25695,0 -2.28971,0.51576 -3.15625,1.23047 -0.86654,0.7147 -1.5987,1.62464 -2.36133,2.51171 -1.52526,1.77415 -3.09143,3.42198 -5.9043,3.5 l -0.52929,0.0156 0.0293,1.05664 0.5293,-0.0137 c 3.2243,-0.0894 5.12617,-2.06245 6.67774,-3.86719 0.77578,-0.90237 1.48445,-1.76981 2.23242,-2.38672 0.74797,-0.61691 1.50464,-0.98828 2.48242,-0.98828 h 30.35156 c 0.93648,0 1.72003,0.38119 2.53516,1.01953 0.81513,0.63834 1.63125,1.53043 2.55078,2.44727 1.83905,1.83368 4.16364,3.77539 7.87109,3.77539 h 0.5293 v -1.0586 h -0.5293 c -3.34523,0 -5.33268,-1.67971 -7.125,-3.46679 -0.89616,-0.89354 -1.72583,-1.81181 -2.64453,-2.53125 -0.91869,-0.71945 -1.95638,-1.24414 -3.1875,-1.24414 z"
         id="path5558" />
      <path
         style="color:#000000;fill:#007833;fill-opacity:1;stroke-linecap:square;-inkscape-stroke:none"
         d="m 257.23828,399.55273 v 1.0586 h 0.5293 78.04297 0.52929 v -1.0586 h -0.52929 -78.04297 z"
         id="path5560" />
      <path
         style="color:#000000;fill:#007833;fill-opacity:1;stroke-linecap:square;-inkscape-stroke:none"
         d="m 258.49023,399.55273 v 1.0586 h 0.5293 4.06055 c 0.43367,0 0.7525,0.20734 1.10937,0.64062 0.35688,0.43328 0.69106,1.07283 1.03321,1.74024 0.34214,0.66741 0.69245,1.3638 1.16015,1.93164 0.4677,0.56783 1.11402,1.02734 1.92578,1.02734 H 314.75 c 2.04434,0 3.99648,-1.43081 5.91016,-2.76562 1.91367,-1.33482 3.78951,-2.57422 5.30468,-2.57422 h 2.43164 0.5293 v -1.0586 h -0.5293 -2.43164 c -2.04433,0 -3.99648,1.43081 -5.91015,2.76563 -1.91368,1.33482 -3.78952,2.57422 -5.30469,2.57422 h -46.44141 c -0.43367,0 -0.7525,-0.2093 -1.10937,-0.64258 -0.35687,-0.43328 -0.69301,-1.07283 -1.03516,-1.74023 -0.34214,-0.66741 -0.6905,-1.36186 -1.1582,-1.92969 -0.4677,-0.56784 -1.11402,-1.02735 -1.92578,-1.02735 h -4.06055 z"
         id="path5562" />
      <path
         style="color:#000000;fill:#007833;fill-opacity:1;stroke-linecap:square;-inkscape-stroke:none"
         d="m 334.26172,399.55273 c -1.40313,0 -2.87464,0.71732 -4.41602,1.72266 -1.54138,1.00534 -3.1514,2.32394 -4.7539,3.63281 -1.6025,1.30887 -3.19727,2.60844 -4.66602,3.56641 -1.46875,0.95797 -2.81354,1.54883 -3.83594,1.54883 h -8.56054 c -1.36738,0 -2.55141,-1.12724 -3.83399,-2.41016 -1.28258,-1.28292 -2.66368,-2.7207 -4.58203,-2.7207 h -4.85937 c -1.89161,0 -3.23279,1.44364 -4.47461,2.72656 -1.24183,1.28292 -2.38329,2.4043 -3.71289,2.4043 h -5.98633 c -0.41621,0 -0.72603,-0.19848 -1.07422,-0.61328 -0.3482,-0.4148 -0.67643,-1.02846 -1.01367,-1.66993 -0.33725,-0.64146 -0.68309,-1.31003 -1.14258,-1.85742 -0.45949,-0.54739 -1.09173,-0.99023 -1.88281,-0.99023 h -5.03321 -0.52929 v 1.05859 h 0.52929 5.03321 c 0.41621,0 0.72407,0.19653 1.07226,0.61133 0.3482,0.4148 0.67838,1.03041 1.01563,1.67187 0.33724,0.64147 0.68113,1.31004 1.14062,1.85743 0.4595,0.54739 1.09368,0.99023 1.88477,0.99023 h 5.98633 c 1.89161,0 3.23083,-1.44364 4.47265,-2.72656 1.24183,-1.28292 2.38524,-2.4043 3.71485,-2.4043 h 4.85937 c 1.36738,0 2.55141,1.12723 3.83399,2.41016 1.28257,1.28292 2.66368,2.7207 4.58203,2.7207 h 8.56054 c 1.40313,0 2.87268,-0.71732 4.41407,-1.72266 1.54138,-1.00533 3.15336,-2.32394 4.75586,-3.63281 1.6025,-1.30887 3.19531,-2.60648 4.66406,-3.56445 1.46875,-0.95797 2.81549,-1.55078 3.83789,-1.55078 h 1.54883 0.52929 v -1.0586 h -0.52929 z"
         id="path5564" />
      <path
         style="color:#000000;fill:#007833;fill-opacity:1;stroke-linecap:square;-inkscape-stroke:none"
         d="m 285.75977,395.9375 c -0.65967,0 -1.21468,0.30966 -1.64844,0.70117 -0.43376,0.39151 -0.7804,0.87101 -1.11133,1.32422 -0.33093,0.45322 -0.6453,0.88105 -0.95313,1.16797 -0.30782,0.28692 -0.57163,0.42187 -0.88085,0.42187 h -7.2129 -0.52929 v 1.0586 h 0.52929 7.2129 c 0.64383,0 1.18201,-0.31597 1.60156,-0.70703 0.41955,-0.39107 0.75874,-0.86759 1.08789,-1.31836 0.32914,-0.45077 0.64744,-0.87563 0.96484,-1.16211 0.3174,-0.28648 0.59849,-0.42773 0.93946,-0.42774 6.36779,-4e-5 12.73572,-3e-5 19.10351,0 1.45419,1e-5 2.26075,0.75899 3.16406,1.6543 0.90332,0.89531 1.90368,1.96094 3.52539,1.96094 h 5.70899 0.5293 v -1.0586 h -0.5293 -5.70899 c -1.16375,0 -1.86042,-0.74163 -2.78125,-1.65429 -0.92083,-0.91267 -2.06692,-1.96093 -3.9082,-1.96094 -6.36779,-3e-5 -12.73572,-4e-5 -19.10351,0 z"
         id="path5566" />
      <path
         style="color:#000000;fill:#007833;fill-opacity:1;stroke-linecap:square;-inkscape-stroke:none"
         d="m 291.24219,399.55273 c -2.04434,0 -3.56229,1.47769 -4.98438,2.8125 -1.42209,1.33482 -2.74849,2.52735 -4.26367,2.52735 h -9.04492 -0.5293 v 1.05859 h 0.5293 9.04492 c 2.04434,0 3.56424,-1.47963 4.98633,-2.81445 1.42209,-1.33482 2.74655,-2.52539 4.26172,-2.52539 h 8.92187 0.5293 v -1.0586 h -0.5293 z"
         id="path5568" />
      <g
         id="g5574"
         transform="matrix(1.2732565,0,0,1.2341525,155.9165,-93.680235)"
         style="fill:#007833;fill-opacity:1;stroke-width:0.797733">
        <path
           style="color:#000000;fill:#007833;fill-opacity:1;stroke-linecap:round;-inkscape-stroke:none"
           d="m 139.47461,397.18945 a 0.3988665,0.3988665 0 0 0 -0.28125,0.11719 0.3988665,0.3988665 0 0 0 0,0.56445 l 2.49414,2.49219 a 0.3988665,0.3988665 0 0 0 0.56445,0 0.3988665,0.3988665 0 0 0 0,-0.5625 l -2.49414,-2.49414 a 0.3988665,0.3988665 0 0 0 -0.2832,-0.11719 z"
           id="path5570" />
        <path
           style="color:#000000;fill:#007833;fill-opacity:1;stroke-linecap:round;-inkscape-stroke:none"
           d="m 141.96875,399.68359 a 0.3988665,0.3988665 0 0 0 -0.28125,0.11719 l -2.49414,2.49414 a 0.3988665,0.3988665 0 0 0 0,0.5625 0.3988665,0.3988665 0 0 0 0.56445,0 l 2.49414,-2.49414 a 0.3988665,0.3988665 0 0 0 0,-0.5625 0.3988665,0.3988665 0 0 0 -0.2832,-0.11719 z"
           id="path5572" />
      </g>
      <g
         id="path5576"
         inkscape:transform-center-x="-0.43659976"
         inkscape:transform-center-y="-1.9289892e-06"
         transform="matrix(0.13987207,0,0,0.13987207,139.2196,205.39403)"
         style="fill:#007833;fill-opacity:1">
        <path
           style="color:#000000;fill:#007833;fill-opacity:1;fill-rule:evenodd;stroke-width:0.667316;stroke-linecap:square;-inkscape-stroke:none"
           d="m 1127.2762,1366.0665 -9.3643,5.4065 -9.3642,5.4064 v -10.8129 -10.8129 l 9.3642,5.4065 z"
           id="path2693" />
        <path
           style="color:#000000;fill:#007833;fill-opacity:1;fill-rule:evenodd;stroke-linecap:square;-inkscape-stroke:none"
           d="m 1108.2148,1354.6758 v 11.3906 11.3906 l 9.8633,-5.6953 9.8653,-5.6953 -0.5,-0.2891 -9.3653,-5.4062 z m 0.6661,1.1562 8.8632,5.1172 8.8653,5.1172 -8.8653,5.1172 -8.8632,5.1172 v -10.2344 z"
           id="path2695" />
      </g>
      <g
         id="circle5578"
         style="fill:#007833;fill-opacity:1">
        <path
           style="color:#000000;fill:#007833;fill-opacity:1;fill-rule:evenodd;stroke-width:0.352777;stroke-linecap:square;-inkscape-stroke:none"
           d="m 298.55538,405.42139 a 1.3764513,1.3764513 0 0 1 -1.37646,1.37645 1.3764513,1.3764513 0 0 1 -1.37645,-1.37645 1.3764513,1.3764513 0 0 1 1.37645,-1.37645 1.3764513,1.3764513 0 0 1 1.37646,1.37645 z"
           id="path2699" />
        <path
           style="color:#000000;fill:#007833;fill-opacity:1;fill-rule:evenodd;stroke-linecap:square;-inkscape-stroke:none"
           d="m 297.17969,403.86914 c -0.85552,0 -1.55274,0.69722 -1.55274,1.55273 0,0.85552 0.69722,1.55274 1.55274,1.55274 0.85552,0 1.55273,-0.69721 1.55273,-1.55274 0,-0.85552 -0.69721,-1.55273 -1.55273,-1.55273 z m 0,0.35156 c 0.66487,0 1.19922,0.53631 1.19922,1.20117 0,0.66487 -0.53435,1.19923 -1.19922,1.19922 -0.66487,0 -1.20117,-0.53435 -1.20117,-1.19922 0,-0.66486 0.5363,-1.20117 1.20117,-1.20117 z"
           id="path2701" />
      </g>
      <g
         id="path5580"
         inkscape:transform-center-x="6.4644089e-06"
         inkscape:transform-center-y="-0.49422649"
         transform="matrix(0.21862313,0,0,-0.21857779,48.634314,696.72524)"
         style="fill:#007833;fill-opacity:1">
        <path
           style="color:#000000;fill:#007833;fill-opacity:1;fill-rule:evenodd;stroke-width:0.426984;stroke-linecap:square;-inkscape-stroke:none"
           d="m 1157.3992,1363.8278 -3.9164,-6.7833 -3.9163,-6.7833 h 7.8327 7.8326 l -3.9163,6.7833 z"
           id="path2705" />
        <path
           style="color:#000000;fill:#007833;fill-opacity:1;fill-rule:evenodd;stroke-linecap:square;-inkscape-stroke:none"
           d="m 1149.1973,1350.0469 4.1015,7.1035 4.0996,7.1035 0.1856,-0.3203 3.916,-6.7832 4.1016,-7.1035 h -8.2032 z m 0.7402,0.4277 h 7.4609 7.4629 l -3.7304,6.4629 -3.7325,6.4629 -3.7304,-6.4629 z"
           id="path2707" />
      </g>
      <g
         id="rect5582"
         style="fill:#007833;fill-opacity:1">
        <path
           style="color:#000000;fill:#007833;fill-opacity:1;fill-rule:evenodd;stroke-width:0.352777;stroke-linecap:square;-inkscape-stroke:none"
           d="m 288.15302,391.34616 h 2.75291 v 2.75291 h -2.75291 z"
           id="path2711" />
        <path
           style="color:#000000;fill:#007833;fill-opacity:1;fill-rule:evenodd;stroke-linecap:square;-inkscape-stroke:none"
           d="m 287.97656,391.16992 v 0.17578 2.92969 h 3.10547 v -3.10547 z m 0.35352,0.35352 h 2.40039 v 2.39843 h -2.40039 z"
           id="path2713" />
      </g>
      <g
         id="path5584"
         inkscape:transform-center-x="-0.43659976"
         inkscape:transform-center-y="-1.9289892e-06"
         transform="matrix(0.13987207,0,0,0.13987207,157.25504,219.47853)"
         style="fill:#007833;fill-opacity:1">
        <path
           style="color:#000000;fill:#007833;fill-opacity:1;fill-rule:evenodd;stroke-width:0.667316;stroke-linecap:square;-inkscape-stroke:none"
           d="m 1127.2762,1366.0665 -9.3643,5.4065 -9.3642,5.4064 v -10.8129 -10.8129 l 9.3642,5.4065 z"
           id="path2717" />
        <path
           style="color:#000000;fill:#007833;fill-opacity:1;fill-rule:evenodd;stroke-linecap:square;-inkscape-stroke:none"
           d="m 1108.2148,1354.6758 v 11.3906 11.3906 l 9.8633,-5.6953 9.8653,-5.6953 -0.5,-0.2891 -9.3653,-5.4062 z m 0.6661,1.1562 8.8632,5.1172 8.8653,5.1172 -8.8653,5.1172 -8.8632,5.1172 v -10.2344 z"
           id="path2719" />
      </g>
      <g
         id="rect5586"
         style="fill:#007833;fill-opacity:1">
        <path
           style="color:#000000;fill:#007833;fill-opacity:1;fill-rule:evenodd;stroke-width:0.352777;stroke-linecap:square;-inkscape-stroke:none"
           d="m 282.43433,409.17664 h 2.75291 v 2.75291 h -2.75291 z"
           id="path2723" />
        <path
           style="color:#000000;fill:#007833;fill-opacity:1;fill-rule:evenodd;stroke-linecap:square;-inkscape-stroke:none"
           d="m 282.25781,409 v 0.17578 2.92969 h 3.10547 V 409 Z m 0.35352,0.35352 h 2.40039 v 2.40039 h -2.40039 z"
           id="path2725" />
      </g>
      <g
         id="path5588"
         inkscape:transform-center-x="6.4644089e-06"
         inkscape:transform-center-y="-0.49422649"
         transform="matrix(0.21862313,0,0,-0.21857779,19.059369,702.04118)"
         style="fill:#007833;fill-opacity:1">
        <path
           style="color:#000000;fill:#007833;fill-opacity:1;fill-rule:evenodd;stroke-width:0.426984;stroke-linecap:square;-inkscape-stroke:none"
           d="m 1157.3992,1363.8278 -3.9164,-6.7833 -3.9163,-6.7833 h 7.8327 7.8326 l -3.9163,6.7833 z"
           id="path2729" />
        <path
           style="color:#000000;fill:#007833;fill-opacity:1;fill-rule:evenodd;stroke-linecap:square;-inkscape-stroke:none"
           d="m 1149.1973,1350.0469 4.1015,7.1035 4.0996,7.1035 0.1856,-0.3203 3.916,-6.7832 4.1016,-7.1035 h -8.2032 z m 0.7402,0.4277 h 7.4609 7.4629 l -3.7304,6.4629 -3.7325,6.4629 -3.7304,-6.4629 z"
           id="path2731" />
      </g>
      <g
         id="path5590"
         inkscape:transform-center-x="-0.43659976"
         inkscape:transform-center-y="-1.9289892e-06"
         transform="matrix(0.13987207,0,0,0.13987207,104.07089,208.96698)"
         style="fill:#007833;fill-opacity:1">
        <path
           style="color:#000000;fill:#007833;fill-opacity:1;fill-rule:evenodd;stroke-width:0.667316;stroke-linecap:square;-inkscape-stroke:none"
           d="m 1127.2762,1366.0665 -9.3643,5.4065 -9.3642,5.4064 v -10.8129 -10.8129 l 9.3642,5.4065 z"
           id="path2735" />
        <path
           style="color:#000000;fill:#007833;fill-opacity:1;fill-rule:evenodd;stroke-linecap:square;-inkscape-stroke:none"
           d="m 1108.2148,1354.6758 v 11.3906 11.3906 l 9.8633,-5.6953 9.8653,-5.6953 -0.5,-0.2891 -9.3653,-5.4062 z m 0.6661,1.1562 8.8632,5.1172 8.8653,5.1172 -8.8653,5.1172 -8.8632,5.1172 v -10.2344 z"
           id="path2737" />
      </g>
      <g
         id="circle5592"
         style="fill:#007833;fill-opacity:1">
        <path
           style="color:#000000;fill:#007833;fill-opacity:1;fill-rule:evenodd;stroke-width:0.352777;stroke-linecap:square;-inkscape-stroke:none"
           d="m 279.25478,400.08212 a 1.3764513,1.3764513 0 0 1 -1.37645,1.37645 1.3764513,1.3764513 0 0 1 -1.37645,-1.37645 1.3764513,1.3764513 0 0 1 1.37645,-1.37645 1.3764513,1.3764513 0 0 1 1.37645,1.37645 z"
           id="path2741" />
        <path
           style="color:#000000;fill:#007833;fill-opacity:1;fill-rule:evenodd;stroke-linecap:square;-inkscape-stroke:none"
           d="m 277.87891,398.5293 c -0.85552,0 -1.55274,0.69721 -1.55274,1.55273 0,0.85552 0.69722,1.55273 1.55274,1.55274 0.85551,-10e-6 1.55273,-0.69722 1.55273,-1.55274 0,-0.85552 -0.69722,-1.55273 -1.55273,-1.55273 z m 0,0.35351 c 0.66486,0 1.19921,0.53436 1.19921,1.19922 0,0.66487 -0.53435,1.19922 -1.19921,1.19922 -0.66487,0 -1.20117,-0.53435 -1.20118,-1.19922 10e-6,-0.66486 0.53631,-1.19922 1.20118,-1.19922 z"
           id="path2743" />
      </g>
      <g
         id="circle5594"
         style="fill:#007833;fill-opacity:1">
        <path
           style="color:#000000;fill:#007833;fill-opacity:1;fill-rule:evenodd;stroke-width:0.352777;stroke-linecap:square;-inkscape-stroke:none"
           d="m 316.56758,400.08228 a 1.3764513,1.3764513 0 0 1 -1.37645,1.37645 1.3764513,1.3764513 0 0 1 -1.37645,-1.37645 1.3764513,1.3764513 0 0 1 1.37645,-1.37646 1.3764513,1.3764513 0 0 1 1.37645,1.37646 z"
           id="path2747" />
        <path
           style="color:#000000;fill:#007833;fill-opacity:1;fill-rule:evenodd;stroke-linecap:square;-inkscape-stroke:none"
           d="m 315.19141,398.5293 c -0.85553,0 -1.55274,0.69721 -1.55274,1.55273 0,0.85552 0.69722,1.55273 1.55274,1.55274 0.85551,-10e-6 1.55273,-0.69722 1.55273,-1.55274 10e-6,-0.85552 -0.69721,-1.55273 -1.55273,-1.55273 z m 0,0.35351 c 0.66486,0 1.19922,0.53435 1.19921,1.19922 0,0.66487 -0.53435,1.20117 -1.19921,1.20117 -0.66487,0 -1.20117,-0.5363 -1.20118,-1.20117 0,-0.66487 0.53631,-1.19922 1.20118,-1.19922 z"
           id="path2749" />
      </g>
      <g
         id="path5596"
         inkscape:transform-center-x="-0.43659976"
         inkscape:transform-center-y="-1.9289892e-06"
         transform="matrix(0.13987207,0,0,0.13987207,170.88392,209.00772)"
         style="fill:#007833;fill-opacity:1">
        <path
           style="color:#000000;fill:#007833;fill-opacity:1;fill-rule:evenodd;stroke-width:0.667316;stroke-linecap:square;-inkscape-stroke:none"
           d="m 1127.2762,1366.0665 -9.3643,5.4065 -9.3642,5.4064 v -10.8129 -10.8129 l 9.3642,5.4065 z"
           id="path2753" />
        <path
           style="color:#000000;fill:#007833;fill-opacity:1;fill-rule:evenodd;stroke-linecap:square;-inkscape-stroke:none"
           d="m 1108.2148,1354.6758 v 11.3906 11.3906 l 9.8633,-5.6953 9.8653,-5.6953 -0.5,-0.2891 -9.3653,-5.4062 z m 0.6661,1.1562 8.8632,5.1172 8.8653,5.1172 -8.8653,5.1172 -8.8632,5.1172 v -10.2344 z"
           id="path2755" />
      </g>
      <g
         id="rect5598"
         style="fill:#007833;fill-opacity:1">
        <path
           style="color:#000000;fill:#007833;fill-opacity:1;fill-rule:evenodd;stroke-width:0.352777;stroke-linecap:square;-inkscape-stroke:none"
           d="m 307.38519,403.94113 h 2.75292 v 2.75291 h -2.75292 z"
           id="path2759" />
        <path
           style="color:#000000;fill:#007833;fill-opacity:1;fill-rule:evenodd;stroke-linecap:square;-inkscape-stroke:none"
           d="m 307.20898,403.76562 v 0.17579 2.92968 h 3.10547 v -3.10547 z m 0.35352,0.35157 h 2.39844 v 2.40039 h -2.39844 z"
           id="path2761" />
      </g>
    </g>
    <g
       id="g295"
       transform="matrix(0.26458333,0,0,0.26458333,258.1418,276.87674)">
	<g
   id="g273">
		<path
   class="st0"
   d="m 129.32,131.43 c 0,7.48 0.38,13.64 0.48,15.01 0.1,2.2 0.67,3.26 2.4,3.26 h 1.25 c 0.38,0 0.38,0.18 0.38,0.4 v 1.01 c 0,0.26 0,0.35 -0.38,0.35 -0.48,0 -3.36,-0.13 -5.18,-0.13 -1.25,0 -4.51,0.13 -4.99,0.13 -0.19,0 -0.29,-0.09 -0.29,-0.4 v -1.1 c 0,-0.09 0.1,-0.26 0.29,-0.26 h 1.63 c 1.25,0 1.92,-0.97 2.16,-3.65 0.05,-0.79 0.34,-6.95 0.34,-13.99 v -5.59 c 0,-2.64 -1.63,-4.67 -3.74,-4.67 h -1.54 c -0.19,-0.04 -0.29,-0.13 -0.29,-0.31 v -1.19 c 0,-0.18 0.1,-0.26 0.29,-0.26 0.24,0 0.62,0.04 1.49,0.09 0.86,0.04 2.16,0.04 4.27,0.04 0.82,0 1.54,-0.04 2.11,-0.09 0.62,0 1.06,-0.04 1.34,-0.04 0.58,0 0.86,0.13 1.15,0.4 0.48,0.44 9.88,11.27 10.84,12.5 0.67,0.7 8.15,9.24 8.92,10.12 h 0.19 v -4.58 c 0,-3.87 0,-6.07 -0.1,-8.27 -0.1,-1.67 -0.29,-5.99 -0.53,-6.73 -0.34,-1.06 -1.39,-1.67 -2.54,-1.67 h -1.53 c -0.29,0 -0.29,-0.18 -0.29,-0.4 v -1.01 c 0,-0.26 0,-0.35 0.38,-0.35 0.58,0 2.11,0.13 5.37,0.13 2.88,0 4.03,-0.13 4.6,-0.13 0.38,0 0.48,0.18 0.48,0.31 v 1.01 c 0,0.26 -0.1,0.44 -0.29,0.44 h -1.34 c -0.96,0 -1.44,0.7 -1.58,2.33 -0.24,2.99 -0.72,10.39 -0.72,14.88 v 11.62 c 0,0.62 0,1.23 -0.58,1.23 -0.67,0 -1.25,-0.35 -1.63,-0.7 -0.38,-0.44 -2.97,-3.17 -5.95,-6.42 -3.36,-3.79 -7.1,-7.92 -7.67,-8.63 -0.67,-0.62 -8.34,-9.42 -8.92,-10.03 h -0.29 v 5.34 z"
   id="path237"
   style="fill:#007833" />

		<path
   class="st0"
   d="m 171.57,149.17 c -1.06,1.06 -2.3,1.8 -4.17,2.38 -1.1,0.31 -2.11,0.31 -3.07,0.31 -1.77,0 -3.31,-1.32 -3.31,-3.79 0,-2.02 0.96,-4 4.41,-5.41 2.97,-1.32 4.8,-2.02 5.85,-2.73 v -2.29 c -0.1,-0.88 -0.19,-1.94 -0.77,-2.46 -0.48,-0.48 -1.34,-0.66 -2.4,-0.66 -0.86,0 -2.01,0.26 -2.78,0.79 -0.67,0.44 -0.19,1.1 -0.19,2.16 0,1.58 -0.86,2.55 -2.88,2.55 -0.86,0 -1.63,-0.53 -1.63,-1.5 0,-1.23 0.77,-2.64 2.21,-3.61 2.01,-1.41 4.6,-2.46 7.77,-2.46 2.69,0 3.55,0.53 4.41,1.23 1.05,0.88 1.15,2.11 1.15,3.3 l 0.1,6.95 v 2.11 c 0,2.38 0.38,3.08 1.25,3.08 0.67,0 1.34,-0.35 1.54,-0.7 0.19,-0.26 0.29,-0.26 0.48,-0.18 l 0.58,0.35 c 0.19,0.09 0.29,0.26 0.1,0.7 -0.48,0.79 -1.63,2.55 -4.41,2.55 -1.82,0 -3.36,-0.79 -4.03,-2.68 h -0.21 z m -0.29,-7.61 c -2.11,1.23 -5.28,1.98 -5.28,5.19 0,1.8 1.06,2.68 2.21,2.68 1.34,-0.09 3.07,-1.32 3.07,-2.11 z"
   id="path239"
   style="fill:#007833" />

		<path
   class="st0"
   d="m 180.63,135.39 c -0.38,0 -0.67,-0.18 -0.67,-0.62 0,-0.35 0.29,-0.62 0.91,-0.84 1.34,-0.44 5.51,-3.7 6.57,-5.54 0.19,-0.35 0.48,-0.44 0.77,-0.44 0.38,0 0.58,0.26 0.58,0.62 l -0.19,4.36 h 6.33 c 0.29,0 0.38,0.18 0.34,0.35 l -0.48,1.85 c -0.05,0.18 -0.19,0.26 -0.48,0.26 h -5.8 c -0.1,1.85 -0.14,3.96 -0.14,5.9 v 3.96 c 0,3.43 1.58,4.14 2.54,4.14 1.05,0 2.11,-0.22 2.78,-0.53 0.34,-0.13 0.48,-0.13 0.58,0.09 l 0.29,0.53 c 0.1,0.26 0,0.44 -0.19,0.62 -0.67,0.44 -2.69,1.76 -6.04,1.76 -2.88,0 -5.04,-2.11 -5.04,-3.96 0,-1.58 0.14,-5.1 0.14,-6.78 v -5.72 h -2.8 z"
   id="path241"
   style="fill:#007833" />

		<path
   class="st0"
   d="m 199.77,138.78 c 0,-1.32 -0.29,-2.2 -2.49,-2.73 -0.43,-0.09 -0.48,-0.22 -0.48,-0.4 v -0.48 c 0,-0.18 0.1,-0.26 0.34,-0.35 0.67,-0.26 5.42,-1.8 6.23,-2.11 0.48,-0.18 0.86,-0.26 1.15,-0.26 0.29,0 0.43,0.18 0.38,0.53 -0.1,0.7 -0.1,3.52 -0.1,7.17 v 4.75 c 0,1.67 0,3.26 0.1,3.78 0.1,0.79 0.29,1.14 0.77,1.14 h 1.92 c 0.38,0 0.48,0.09 0.48,0.31 v 0.88 c 0,0.26 -0.1,0.44 -0.38,0.44 -0.38,0 -2.59,-0.13 -5.8,-0.13 -2.78,0 -4.6,0.13 -5.18,0.13 -0.24,0 -0.38,-0.09 -0.38,-0.44 v -0.84 c 0,-0.26 0.19,-0.35 0.48,-0.35 h 2.11 c 0.48,0 0.72,-0.18 0.77,-0.88 0.05,-1.32 0.1,-2.73 0.1,-3.96 v -6.2 z m 1.63,-10.87 c -1.49,0 -2.92,-0.97 -2.92,-2.46 0,-1.28 1.29,-2.46 3.21,-2.46 1.92,0 2.83,1.28 2.83,2.29 0,1.27 -0.96,2.63 -3.12,2.63 z"
   id="path243"
   style="fill:#007833" />

		<path
   class="st0"
   d="m 227.22,135.04 c 2.25,2.07 3.31,4.36 3.31,6.95 0,2.46 -1.15,4.84 -2.97,6.69 -1.97,2.02 -4.84,3.17 -8.06,3.17 -3.02,0 -5.61,-0.79 -7.77,-3.17 -2.11,-2.29 -2.59,-4.14 -2.59,-6.82 0,-2.11 1.15,-5.19 4.03,-7.31 2.35,-1.76 4.84,-2.11 6.81,-2.11 3.21,0.01 5.61,1.15 7.24,2.6 z m -2.54,6.82 c 0,-4.84 -2.78,-7.66 -4.99,-7.66 -1.25,0 -2.21,0.35 -3.02,1.19 -1.49,1.54 -2.06,3.39 -2.06,6.6 0,2.55 0.19,4.22 1.49,6.12 0.82,1.19 1.87,1.89 3.79,1.89 3.16,0 4.79,-3.65 4.79,-8.14 z"
   id="path245"
   style="fill:#007833" />

		<path
   class="st0"
   d="m 238.25,132.8 c 0.38,-0.18 0.67,-0.35 0.96,-0.35 0.29,0 0.48,0.18 0.58,0.53 l 0.38,2.29 h 0.29 c 0.58,-0.62 1.44,-1.32 2.4,-1.76 1.15,-0.62 2.4,-1.06 3.84,-1.06 1.63,0 3.16,0.26 4.22,1.06 2.11,1.41 2.64,2.73 2.64,4.53 v 6.34 c 0,1.41 -0.05,3.34 -0.05,4.22 0,0.97 0.58,1.23 1.15,1.23 H 256 c 0.43,0 0.58,0.09 0.58,0.31 v 1.01 c 0,0.22 -0.1,0.31 -0.38,0.31 -0.38,0 -1.82,-0.13 -5.18,-0.13 -2.88,0 -4.41,0.13 -4.7,0.13 -0.29,0 -0.38,-0.18 -0.38,-0.53 v -0.75 c 0,-0.26 0.1,-0.35 0.58,-0.35 h 0.96 c 0.38,0 0.77,-0.26 0.86,-1.06 0.14,-1.14 0.19,-2.38 0.19,-4.14 v -5.06 c 0,-1.76 -0.1,-2.9 -1.25,-3.78 -0.96,-0.79 -1.82,-0.79 -2.88,-0.79 -0.77,0 -1.92,0.18 -3.07,1.14 -0.77,0.7 -1.01,1.94 -1.01,3.12 v 9.07 c 0,0.97 0.24,1.5 0.91,1.5 h 0.86 c 0.38,0 0.48,0.09 0.48,0.4 v 0.79 c 0,0.26 -0.1,0.44 -0.38,0.44 -0.29,0 -1.63,-0.13 -4.51,-0.13 -2.97,0 -4.51,0.13 -4.8,0.13 -0.19,0 -0.29,-0.18 -0.29,-0.44 v -0.84 c 0,-0.26 0.1,-0.35 0.48,-0.35 h 0.96 c 0.58,0 1.25,-0.18 1.25,-0.88 v -9.9 c 0,-1.32 -0.86,-2.02 -2.01,-2.55 l -0.38,-0.18 c -0.29,-0.09 -0.38,-0.26 -0.38,-0.44 v -0.35 c 0,-0.18 0.19,-0.35 0.48,-0.44 z"
   id="path247"
   style="fill:#007833" />

		<path
   class="st0"
   d="m 269.52,149.17 c -1.06,1.06 -2.3,1.8 -4.17,2.38 -1.1,0.31 -2.11,0.31 -3.07,0.31 -1.77,0 -3.31,-1.32 -3.31,-3.79 0,-2.02 0.96,-4 4.41,-5.41 2.97,-1.32 4.8,-2.02 5.85,-2.73 v -2.29 c -0.1,-0.88 -0.19,-1.94 -0.77,-2.46 -0.48,-0.48 -1.34,-0.66 -2.4,-0.66 -0.86,0 -2.01,0.26 -2.78,0.79 -0.67,0.44 -0.19,1.1 -0.19,2.16 0,1.58 -0.86,2.55 -2.88,2.55 -0.86,0 -1.63,-0.53 -1.63,-1.5 0,-1.23 0.77,-2.64 2.21,-3.61 2.01,-1.41 4.6,-2.46 7.77,-2.46 2.69,0 3.55,0.53 4.41,1.23 1.05,0.88 1.15,2.11 1.15,3.3 l 0.1,6.95 v 2.11 c 0,2.38 0.38,3.08 1.25,3.08 0.67,0 1.34,-0.35 1.54,-0.7 0.19,-0.26 0.29,-0.26 0.48,-0.18 l 0.58,0.35 c 0.19,0.09 0.29,0.26 0.1,0.7 -0.48,0.79 -1.63,2.55 -4.41,2.55 -1.82,0 -3.36,-0.79 -4.03,-2.68 h -0.21 z m -0.29,-7.61 c -2.11,1.23 -5.28,1.98 -5.28,5.19 0,1.8 1.06,2.68 2.21,2.68 1.34,-0.09 3.07,-1.32 3.07,-2.11 z"
   id="path249"
   style="fill:#007833" />

		<path
   class="st0"
   d="m 283.13,134.47 c 0,-3.08 -0.1,-6.87 -0.19,-8.01 -0.1,-1.5 -0.91,-2.2 -2.45,-2.64 l -0.96,-0.26 c -0.29,-0.09 -0.29,-0.18 -0.29,-0.35 v -0.53 c 0,-0.09 0.1,-0.26 0.38,-0.35 1.92,-0.53 5.66,-1.67 7.19,-2.55 0.58,-0.18 0.86,-0.26 1.06,-0.26 0.29,0 0.48,0.18 0.48,0.79 -0.1,2.38 -0.19,11.53 -0.19,13.95 v 6.34 c 0,2.02 0,6.51 0.1,7.83 0.1,0.79 0.19,1.41 1.25,1.41 h 1.82 c 0.48,0 0.58,0.09 0.58,0.4 v 0.79 c 0,0.26 -0.1,0.44 -0.29,0.44 -0.38,0 -2.49,-0.13 -5.85,-0.13 -3.64,0 -5.56,0.13 -5.95,0.13 -0.29,0 -0.38,-0.18 -0.38,-0.44 v -0.84 c 0,-0.26 0.1,-0.35 0.67,-0.35 h 1.82 c 0.48,0 1.2,-0.35 1.2,-1.58 V 136.2 Z"
   id="path251"
   style="fill:#007833" />

		<path
   class="st0"
   d="m 332.77,142.26 c 0.1,0.09 0.1,0.18 0.1,0.44 -0.19,0.26 -2.11,7.57 -2.4,8.76 -1.25,-0.04 -15.06,-0.13 -19.95,-0.13 -4.32,0 -6.04,0.13 -6.62,0.13 -0.38,0 -0.38,-0.09 -0.38,-0.4 v -1.01 c 0,-0.26 0,-0.35 0.29,-0.35 h 1.92 c 1.73,0 2.01,-0.62 2.01,-1.19 0,-0.79 0.19,-11.79 0.19,-14.43 v -2.46 c 0,-2.82 -0.1,-7.48 -0.19,-8.23 -0.1,-1.14 -0.29,-1.58 -1.54,-1.58 h -2.01 c -0.29,0 -0.38,-0.26 -0.38,-0.4 v -1.01 c 0,-0.26 0.1,-0.35 0.38,-0.35 0.48,0 2.21,0.13 6.62,0.13 5.18,0 7.19,-0.13 7.58,-0.13 0.38,0 0.48,0.18 0.48,0.4 v 1.01 c 0,0.18 -0.1,0.35 -0.48,0.35 h -2.59 c -1.44,0 -1.63,0.44 -1.63,1.63 0,0.62 -0.19,7.22 -0.19,10.3 v 3.78 c 0,0.79 0,10.3 0.19,12.19 h 2.69 c 2.69,0 6.14,0 8.06,-0.22 2.69,-0.35 5.75,-5.63 6.43,-7.3 0.19,-0.18 0.29,-0.26 0.58,-0.18 z"
   id="path253"
   style="fill:#007833" />

		<path
   class="st0"
   d="m 346.41,149.17 c -1.06,1.06 -2.3,1.8 -4.17,2.38 -1.1,0.31 -2.11,0.31 -3.07,0.31 -1.77,0 -3.31,-1.32 -3.31,-3.79 0,-2.02 0.96,-4 4.41,-5.41 2.97,-1.32 4.8,-2.02 5.85,-2.73 v -2.29 c -0.1,-0.88 -0.19,-1.94 -0.77,-2.46 -0.48,-0.48 -1.34,-0.66 -2.4,-0.66 -0.86,0 -2.01,0.26 -2.78,0.79 -0.67,0.44 -0.19,1.1 -0.19,2.16 0,1.58 -0.86,2.55 -2.88,2.55 -0.86,0 -1.63,-0.53 -1.63,-1.5 0,-1.23 0.77,-2.64 2.21,-3.61 2.01,-1.41 4.6,-2.46 7.77,-2.46 2.69,0 3.55,0.53 4.41,1.23 1.05,0.88 1.15,2.11 1.15,3.3 l 0.1,6.95 v 2.11 c 0,2.38 0.38,3.08 1.25,3.08 0.67,0 1.34,-0.35 1.54,-0.7 0.19,-0.26 0.29,-0.26 0.48,-0.18 l 0.58,0.35 c 0.19,0.09 0.29,0.26 0.1,0.7 -0.48,0.79 -1.63,2.55 -4.41,2.55 -1.82,0 -3.36,-0.79 -4.03,-2.68 h -0.21 z m -0.29,-7.61 c -2.11,1.23 -5.28,1.98 -5.28,5.19 0,1.8 1.06,2.68 2.21,2.68 1.34,-0.09 3.07,-1.32 3.07,-2.11 z"
   id="path255"
   style="fill:#007833" />

		<path
   class="st0"
   d="m 359.21,151.72 c -0.24,0.13 -0.43,0.13 -0.62,0.13 l -0.67,-0.18 c -0.19,-0.09 -0.19,-0.18 -0.19,-0.35 0.1,-0.62 0.14,-4.31 0.14,-7.48 l -0.1,-16.06 c 0,-2.99 -0.53,-3.52 -2.06,-3.96 l -0.58,-0.18 c -0.58,-0.09 -0.67,-0.18 -0.67,-0.35 v -0.44 c 0,-0.09 0.1,-0.26 0.48,-0.35 1.92,-0.62 4.7,-1.76 6.23,-2.46 0.67,-0.35 1.06,-0.53 1.44,-0.53 0.38,0 0.58,0.26 0.48,0.7 0,0.35 -0.19,5.37 -0.24,9.2 l -0.05,5.28 c 1.63,-1.45 4.12,-2.24 6.57,-2.24 2.97,0 5.52,1.54 7,3.7 0.86,1.23 1.39,3.08 1.39,5.5 0,4.84 -4.7,10.21 -10.55,10.21 -2.88,0 -4.8,-0.53 -6.14,-1.14 z m 3.6,-9.9 c 0,3.7 0.1,5.1 0.67,6.42 0.58,1.06 1.92,1.98 3.55,1.98 1.53,0 3.26,-0.53 4.36,-2.24 1.01,-1.58 1.25,-2.99 1.25,-4.93 0,-5.1 -2.3,-7.96 -6.09,-7.96 -1.34,0 -2.69,0.44 -3.74,1.32 z"
   id="path257"
   style="fill:#007833" />

		<path
   class="st0"
   d="m 398.55,135.04 c 2.25,2.07 3.31,4.36 3.31,6.95 0,2.46 -1.15,4.84 -2.97,6.69 -1.97,2.02 -4.84,3.17 -8.06,3.17 -3.02,0 -5.61,-0.79 -7.77,-3.17 -2.11,-2.29 -2.59,-4.14 -2.59,-6.82 0,-2.11 1.15,-5.19 4.03,-7.31 2.35,-1.76 4.84,-2.11 6.81,-2.11 3.22,0.01 5.61,1.15 7.24,2.6 z m -2.54,6.82 c 0,-4.84 -2.78,-7.66 -4.99,-7.66 -1.25,0 -2.21,0.35 -3.02,1.19 -1.49,1.54 -2.06,3.39 -2.06,6.6 0,2.55 0.19,4.22 1.49,6.12 0.82,1.19 1.87,1.89 3.79,1.89 3.16,0 4.79,-3.65 4.79,-8.14 z"
   id="path259"
   style="fill:#007833" />

		<path
   class="st0"
   d="m 406.77,140.02 c 0,-2.02 -0.38,-2.73 -1.82,-3.43 l -0.86,-0.44 c -0.29,-0.09 -0.38,-0.18 -0.38,-0.35 v -0.26 c 0,-0.18 0.1,-0.26 0.38,-0.4 l 5.8,-2.51 c 0.29,-0.09 0.48,-0.18 0.77,-0.18 0.29,0 0.38,0.26 0.43,0.53 l 0.43,3.17 h 0.19 c 1.63,-2.46 3.65,-3.96 5.75,-3.96 1.54,0 2.49,0.97 2.49,2.2 0,1.23 -1.34,2.38 -2.59,2.38 -0.67,0 -1.25,-0.18 -1.63,-0.35 -0.38,-0.26 -0.86,-0.35 -1.34,-0.35 -0.58,0 -1.44,0.35 -2.01,1.28 -0.38,0.62 -0.58,1.58 -0.58,2.16 V 148 c 0,1.41 0.38,1.85 1.34,1.85 h 2.11 c 0.29,0 0.38,0.09 0.38,0.31 v 1.01 c 0,0.22 -0.1,0.31 -0.34,0.31 -0.34,0 -2.45,-0.13 -5.95,-0.13 -3.36,0 -5.23,0.13 -5.61,0.13 -0.24,0 -0.34,-0.09 -0.34,-0.31 v -0.97 c 0,-0.26 0.1,-0.35 0.43,-0.35 h 1.68 c 0.77,0 1.25,-0.35 1.25,-1.19 v -8.64 z"
   id="path261"
   style="fill:#007833" />

		<path
   class="st0"
   d="m 432.08,149.17 c -1.06,1.06 -2.3,1.8 -4.17,2.38 -1.1,0.31 -2.11,0.31 -3.07,0.31 -1.77,0 -3.31,-1.32 -3.31,-3.79 0,-2.02 0.96,-4 4.41,-5.41 2.97,-1.32 4.8,-2.02 5.85,-2.73 v -2.29 c -0.1,-0.88 -0.19,-1.94 -0.77,-2.46 -0.48,-0.48 -1.34,-0.66 -2.4,-0.66 -0.86,0 -2.01,0.26 -2.78,0.79 -0.67,0.44 -0.19,1.1 -0.19,2.16 0,1.58 -0.86,2.55 -2.88,2.55 -0.86,0 -1.63,-0.53 -1.63,-1.5 0,-1.23 0.77,-2.64 2.21,-3.61 2.01,-1.41 4.6,-2.46 7.77,-2.46 2.69,0 3.55,0.53 4.41,1.23 1.05,0.88 1.15,2.11 1.15,3.3 l 0.1,6.95 v 2.11 c 0,2.38 0.38,3.08 1.25,3.08 0.67,0 1.34,-0.35 1.54,-0.7 0.19,-0.26 0.29,-0.26 0.48,-0.18 l 0.58,0.35 c 0.19,0.09 0.29,0.26 0.1,0.7 -0.48,0.79 -1.63,2.55 -4.41,2.55 -1.82,0 -3.36,-0.79 -4.03,-2.68 h -0.21 z m -0.29,-7.61 c -2.11,1.23 -5.28,1.98 -5.28,5.19 0,1.8 1.06,2.68 2.21,2.68 1.34,-0.09 3.07,-1.32 3.07,-2.11 z"
   id="path263"
   style="fill:#007833" />

		<path
   class="st0"
   d="m 441.14,135.39 c -0.38,0 -0.67,-0.18 -0.67,-0.62 0,-0.35 0.29,-0.62 0.91,-0.84 1.34,-0.44 5.51,-3.7 6.57,-5.54 0.19,-0.35 0.48,-0.44 0.77,-0.44 0.38,0 0.58,0.26 0.58,0.62 l -0.19,4.36 h 6.33 c 0.29,0 0.38,0.18 0.34,0.35 l -0.48,1.85 c -0.05,0.18 -0.19,0.26 -0.48,0.26 H 449 c -0.1,1.85 -0.14,3.96 -0.14,5.9 v 3.96 c 0,3.43 1.58,4.14 2.54,4.14 1.05,0 2.11,-0.22 2.78,-0.53 0.34,-0.13 0.48,-0.13 0.58,0.09 l 0.29,0.53 c 0.1,0.26 0,0.44 -0.19,0.62 -0.67,0.44 -2.69,1.76 -6.04,1.76 -2.88,0 -5.04,-2.11 -5.04,-3.96 0,-1.58 0.14,-5.1 0.14,-6.78 v -5.72 h -2.78 z"
   id="path265"
   style="fill:#007833" />

		<path
   class="st0"
   d="m 474.08,135.04 c 2.25,2.07 3.31,4.36 3.31,6.95 0,2.46 -1.15,4.84 -2.97,6.69 -1.97,2.02 -4.84,3.17 -8.06,3.17 -3.02,0 -5.61,-0.79 -7.77,-3.17 -2.11,-2.29 -2.59,-4.14 -2.59,-6.82 0,-2.11 1.15,-5.19 4.03,-7.31 2.35,-1.76 4.84,-2.11 6.81,-2.11 3.21,0.01 5.61,1.15 7.24,2.6 z m -2.55,6.82 c 0,-4.84 -2.78,-7.66 -4.99,-7.66 -1.25,0 -2.21,0.35 -3.02,1.19 -1.49,1.54 -2.06,3.39 -2.06,6.6 0,2.55 0.19,4.22 1.49,6.12 0.82,1.19 1.87,1.89 3.79,1.89 3.16,0 4.79,-3.65 4.79,-8.14 z"
   id="path267"
   style="fill:#007833" />

		<path
   class="st0"
   d="m 482.29,140.02 c 0,-2.02 -0.38,-2.73 -1.82,-3.43 l -0.86,-0.44 c -0.29,-0.09 -0.38,-0.18 -0.38,-0.35 v -0.26 c 0,-0.18 0.1,-0.26 0.38,-0.4 l 5.8,-2.51 c 0.29,-0.09 0.48,-0.18 0.77,-0.18 0.29,0 0.38,0.26 0.43,0.53 l 0.43,3.17 h 0.19 c 1.63,-2.46 3.65,-3.96 5.75,-3.96 1.54,0 2.49,0.97 2.49,2.2 0,1.23 -1.34,2.38 -2.59,2.38 -0.67,0 -1.25,-0.18 -1.63,-0.35 -0.38,-0.26 -0.86,-0.35 -1.34,-0.35 -0.58,0 -1.44,0.35 -2.01,1.28 -0.38,0.62 -0.58,1.58 -0.58,2.16 V 148 c 0,1.41 0.38,1.85 1.34,1.85 h 2.11 c 0.29,0 0.38,0.09 0.38,0.31 v 1.01 c 0,0.22 -0.1,0.31 -0.34,0.31 -0.34,0 -2.45,-0.13 -5.95,-0.13 -3.36,0 -5.23,0.13 -5.61,0.13 -0.24,0 -0.34,-0.09 -0.34,-0.31 v -0.97 c 0,-0.26 0.1,-0.35 0.43,-0.35 h 1.68 c 0.77,0 1.25,-0.35 1.25,-1.19 v -8.64 z"
   id="path269"
   style="fill:#007833" />

		<path
   class="st0"
   d="m 496.29,160.92 c 0,-1.23 1.05,-2.2 2.3,-2.2 0.77,0 1.54,0.26 2.11,0.53 0.38,0.18 0.96,0.18 1.25,-0.09 0.58,-0.53 3.07,-5.37 3.64,-7.04 -0.29,-1.32 -5.85,-15.05 -6.19,-15.8 -0.53,-1.14 -1.01,-1.85 -1.97,-1.85 h -0.96 c -0.29,0 -0.38,-0.13 -0.38,-0.35 v -0.97 c 0,-0.18 0.1,-0.31 0.38,-0.31 0.38,0 1.54,0.13 5.08,0.13 2.78,0 4.22,-0.13 4.8,-0.13 0.29,0 0.38,0.09 0.38,0.35 v 0.97 c 0,0.18 -0.1,0.31 -0.34,0.31 h -0.72 c -0.48,0 -0.86,0.26 -0.72,0.92 0.14,0.88 3.02,9.86 3.5,10.83 h 0.19 c 0.86,-1.67 4.22,-9.15 4.46,-10.08 0.29,-1.14 -0.14,-1.67 -1.01,-1.67 h -0.77 c -0.29,0 -0.38,-0.13 -0.38,-0.31 v -0.97 c 0,-0.22 0.1,-0.35 0.38,-0.35 0.58,0 1.54,0.13 4.12,0.13 1.63,0 2.78,-0.13 3.21,-0.13 0.24,0 0.34,0.13 0.34,0.35 v 0.92 c 0,0.26 -0.1,0.35 -0.29,0.35 h -0.58 c -0.48,0 -1.2,0.13 -1.73,0.75 -0.96,1.14 -4.22,7.75 -7.67,14.87 -2.4,4.75 -4.41,8.89 -5.28,10.3 -0.77,1.14 -1.73,2.9 -4.32,2.9 -1.67,0.01 -2.83,-0.95 -2.83,-2.36 z"
   id="path271"
   style="fill:#007833" />

	</g>

	<g
   id="g291">
		<path
   class="st0"
   d="m 169.42,53.41 c 6,4.88 10.88,12.8 10.88,23.68 0,5.92 -1.6,12.16 -5.92,17.6 -5.12,6.4 -12,11.36 -24,11.36 -4.8,0 -11.68,-1.44 -18.08,-5.28 -5.68,-3.44 -11.68,-12.16 -11.68,-23.68 0,-4.8 1.36,-12.4 7.36,-19.84 7.04,-8.64 15.68,-10.24 22.56,-10.24 5.92,0 12.32,1.12 18.88,6.4 z m -30.73,1.6 c -4.88,4.72 -7.2,12.96 -7.2,19.36 0,20.8 12.8,28.16 19.52,28.16 16.16,0 18.72,-17.92 18.72,-24.64 0,-17.44 -11.84,-27.36 -19.52,-27.36 -1.44,0 -6.08,-0.8 -11.52,4.48 z"
   id="path275"
   style="fill:#007833" />

		<path
   class="st0"
   d="m 192.26,86.97 c -0.52,1.5 -3.71,10.79 -4.03,12.55 -0.13,0.52 -0.13,1.04 -0.13,1.37 0,0.84 1.04,1.56 2.34,1.56 h 2.73 c 0.52,0 0.65,0.13 0.65,0.33 v 1.62 c 0,0.39 -0.13,0.65 -0.52,0.65 -0.91,0 -3.64,-0.2 -8.19,-0.2 -4.81,0 -6.24,0.2 -7.15,0.2 -0.39,0 -0.39,-0.39 -0.39,-0.85 v -1.23 c 0,-0.39 0.13,-0.52 0.39,-0.52 h 1.95 c 1.82,0 2.99,-0.91 4.16,-2.92 0.65,-1.17 5.33,-12.87 7.28,-18.33 0.46,-1.3 5.72,-15.34 6.37,-17.03 0.13,-0.65 0.52,-1.82 0.13,-2.21 -0.2,-0.2 -0.39,-0.58 -0.39,-0.78 0,-0.26 0.13,-0.52 0.65,-0.65 2.08,-0.52 5.66,-2.47 6.44,-3.25 0.39,-0.39 0.65,-0.65 0.97,-0.65 0.39,0 0.65,0.78 0.78,1.17 1.17,4.03 6.24,18.59 7.41,22.75 1.56,5.07 5.72,17.16 6.63,18.92 1.17,2.21 2.86,2.99 4.16,2.99 h 2.08 c 0.39,0 0.52,0.13 0.52,0.46 v 1.37 c 0,0.39 -0.13,0.78 -0.65,0.78 -1.17,0 -2.47,-0.2 -9.62,-0.2 -5.46,0 -7.67,0.2 -9.1,0.2 -0.52,0 -0.65,-0.39 -0.65,-0.78 v -1.3 c 0,-0.39 0.13,-0.52 0.52,-0.52 h 1.69 c 1.82,0 2.34,-0.65 1.95,-2.41 -0.52,-2.34 -3.12,-10.66 -3.9,-13.07 h -15.08 z m 14.43,-2.6 c -0.65,-1.88 -5.07,-16.71 -5.46,-18.01 -0.26,-0.78 -0.39,-1.17 -0.65,-1.17 -0.39,0 -0.65,0.26 -0.84,0.84 -0.26,0.84 -6.11,16.84 -6.57,18.33 h 13.52 z"
   id="path277"
   style="fill:#007833" />

		<path
   class="st0"
   d="m 243.26,87.3 c 0,3.25 0.13,12.74 0.19,13.72 0.07,0.91 0.71,1.43 1.5,1.43 h 2.47 c 0.26,0 0.52,0.13 0.52,0.33 v 1.75 c 0,0.26 -0.13,0.52 -0.39,0.52 -0.78,0 -2.73,-0.2 -8.32,-0.2 -5.59,0 -7.67,0.2 -8.32,0.2 -0.26,0 -0.39,-0.13 -0.39,-0.46 v -1.75 c 0,-0.26 0.13,-0.39 0.39,-0.39 h 2.34 c 1.17,0 1.69,-0.52 1.75,-1.23 0.07,-0.52 0.2,-12.35 0.2,-20.41 v -3.77 c 0,-1.17 -0.13,-13.65 -0.13,-14.24 0,-0.78 -0.39,-1.56 -1.95,-1.56 h -1.95 c -0.39,0 -0.52,-0.13 -0.52,-0.46 v -1.76 c 0,-0.26 0.13,-0.39 0.52,-0.39 0.78,0 2.73,0.2 8.32,0.2 5.07,0 7.15,-0.2 8.06,-0.2 0.39,0 0.52,0.13 0.52,0.45 v 1.62 c 0,0.39 -0.13,0.52 -0.52,0.52 h -2.08 c -1.3,0 -1.95,0.39 -1.95,1.88 0,1.04 -0.26,11.18 -0.26,14.3 v 2.86 h 1.17 c 0.78,0 1.43,-0.26 2.21,-0.91 1.23,-1.04 12.54,-15.15 13.26,-16.12 0.91,-1.3 0.13,-2.08 -1.04,-2.08 h -0.97 c -0.26,0 -0.33,-0.13 -0.33,-0.46 v -1.56 c 0,-0.39 0.13,-0.52 0.39,-0.52 0.78,0 3.38,0.2 7.67,0.2 2.6,0 4.81,-0.2 5.59,-0.2 0.39,0 0.52,0.13 0.52,0.45 v 1.62 c 0,0.39 -0.26,0.52 -0.52,0.52 h -1.3 c -0.91,0 -2.34,0.26 -3.64,1.1 -3.06,2.02 -12.22,12.61 -14.69,15.86 2.6,3.25 15.86,20.41 17.81,22.69 1.17,1.43 2.86,1.56 3.9,1.56 h 1.43 c 0.39,0 0.52,0.26 0.52,0.46 v 1.62 c 0,0.39 -0.13,0.52 -0.52,0.52 -0.65,0 -2.99,-0.2 -8.97,-0.2 -5.46,0 -7.93,0.2 -8.84,0.2 -0.26,0 -0.39,-0.13 -0.39,-0.52 v -1.62 c 0,-0.26 0.13,-0.39 0.39,-0.39 h 0.91 c 1.17,0 1.3,-1.17 1.04,-1.69 -0.65,-1.3 -11.18,-16.38 -12.22,-17.42 -0.65,-0.65 -1.43,-0.91 -2.21,-0.91 h -1.17 z"
   id="path279"
   style="fill:#007833" />

		<path
   class="st0"
   d="m 310.61,83.89 c 0,4.8 0.16,13.76 0.32,14.96 0.24,1.6 0.8,3.04 2.08,3.04 h 4 c 0.48,0 0.64,0.24 0.64,0.56 v 1.92 c 0,0.56 -0.24,0.72 -0.88,0.72 -1.04,0 -2.64,-0.24 -10.96,-0.24 -7.84,0 -9.76,0.24 -10.56,0.24 -0.48,0 -0.64,-0.24 -0.64,-0.72 v -1.84 c 0,-0.4 0.16,-0.64 0.48,-0.64 h 2.72 c 1.76,0 3.04,-0.48 3.04,-2.64 0.16,-8 0.16,-15.52 0.16,-23.04 V 55.17 c 0,-2.72 -1.12,-4 -2.56,-4 h -3.12 c -0.4,0 -0.56,-0.16 -0.56,-0.48 v -2.16 c 0,-0.4 0.16,-0.56 0.56,-0.56 0.56,0 3.12,0.24 10.96,0.24 4.48,0 11.84,-0.24 14.24,-0.24 6.4,0 11.36,2.16 14.56,5.04 2.88,2.56 4.32,5.92 4.32,8.96 0,10.08 -6.08,14.24 -14.88,15.68 v 0.32 c 2.24,0.8 3.68,2.24 4.8,3.68 0.96,1.28 5.92,8.8 6.56,9.76 0.48,0.8 5.6,8 6.8,9.12 1.52,1.36 3.76,1.52 5.68,1.52 0.48,0 0.64,0.24 0.64,0.56 v 1.68 c 0,0.56 -0.16,0.8 -0.64,0.8 -0.64,0 -2.72,-0.24 -7.84,-0.24 -2.24,0 -5.28,0.16 -7.04,0.24 -0.96,-0.72 -2.48,-2.88 -3.52,-4.56 -1.44,-2.24 -4.56,-8 -5.28,-9.28 -0.8,-1.44 -3.04,-5.12 -4.32,-6.88 -2,-2.8 -3.84,-4.96 -7.2,-4.96 -0.32,0 -1.68,0.08 -2.56,0.16 z m 0.16,-7.2 c 1.12,0.16 2.08,0.32 3.04,0.32 12.48,0 15.04,-10.08 15.04,-13.76 0,-3.68 -1.52,-7.12 -3.52,-8.96 -2.88,-2.56 -6.56,-3.44 -10.56,-3.44 -1.28,0 -2.24,0.08 -2.88,0.48 -0.64,0.4 -0.96,1.36 -0.96,2.32 z"
   id="path281"
   style="fill:#007833" />

		<path
   class="st0"
   d="m 367.08,83.79 c 0,0.65 0.13,15.6 0.13,16.32 0,2.08 1.04,2.34 2.6,2.34 h 2.73 c 0.26,0 0.52,0.13 0.52,0.46 v 1.62 c 0,0.39 -0.26,0.52 -0.65,0.52 -0.78,0 -3.38,-0.2 -9.49,-0.2 -6.5,0 -9.36,0.2 -10.01,0.2 -0.39,0 -0.52,-0.13 -0.52,-0.46 v -1.75 c 0,-0.26 0.13,-0.39 0.52,-0.39 h 2.6 c 1.3,0 2.73,-0.13 2.99,-1.88 0.13,-0.91 0.26,-14.95 0.26,-18.46 v -4.55 c 0,-1.56 -0.13,-13.26 -0.2,-14.11 -0.19,-1.56 -0.84,-2.21 -2.67,-2.21 h -3.38 c -0.39,0 -0.52,-0.13 -0.52,-0.46 v -1.69 c 0,-0.33 0.13,-0.45 0.39,-0.45 0.78,0 4.16,0.2 10.53,0.2 6.24,0 8.32,-0.2 9.23,-0.2 0.39,0 0.52,0.26 0.52,0.58 v 1.5 c 0,0.39 -0.26,0.52 -0.52,0.52 h -2.47 c -1.43,0 -2.47,0.52 -2.47,1.75 0,0.65 -0.13,14.95 -0.13,15.73 v 5.07 z"
   id="path283"
   style="fill:#007833" />

		<path
   class="st0"
   d="m 384.26,74.95 c 0,-1.69 -0.26,-10.92 -0.39,-11.9 -0.13,-1.56 -1.04,-1.82 -2.34,-1.82 h -3.51 c -0.26,0 -0.52,-0.13 -0.52,-0.46 v -1.76 c 0,-0.26 0.26,-0.39 0.59,-0.39 1.88,0 5.26,0.2 9.82,0.2 3.25,0 6.5,-0.2 9.75,-0.2 8.71,0 15.73,0.84 21.71,5.91 4.29,3.51 7.28,8.97 7.28,16.51 0,7.41 -2.08,12.35 -6.37,17.03 -6.37,6.89 -16.51,6.96 -20.93,6.96 -2.47,0 -9.1,-0.2 -12.35,-0.2 -5.72,0 -8.32,0.2 -9.23,0.2 -0.26,0 -0.39,-0.13 -0.39,-0.58 v -1.62 c 0,-0.26 0.13,-0.39 0.52,-0.39 h 3.77 c 1.3,0 1.95,-0.52 2.14,-1.62 0.2,-1.3 0.46,-15.99 0.46,-20.93 v -4.94 z m 8.19,6.37 c 0,0.78 0.13,11.83 0.13,15.86 0,1.3 0.26,2.34 1.17,3.64 0.78,1.24 3.25,1.75 5.72,1.75 5.07,0 10.27,-2.27 13.52,-6.57 2.73,-3.51 4.68,-8.84 4.68,-14.82 0,-5.2 -2.21,-10.79 -5.2,-14.17 -3.51,-3.77 -9.23,-6.11 -14.56,-6.11 -1.43,0 -3.12,0 -4.16,0.65 -0.91,0.52 -1.17,1.56 -1.17,2.86 -0.13,2.73 -0.13,11.18 -0.13,12.22 z"
   id="path285"
   style="fill:#007833" />

		<path
   class="st0"
   d="m 474.89,98.41 c 0,0.91 0.26,1.56 0.26,2.08 0,0.52 -0.39,0.78 -1.04,1.04 -5.33,2.73 -10.66,4.29 -18.46,4.29 -6.37,0 -14.3,-2.21 -18.72,-7.54 -4.03,-4.42 -5.98,-10.01 -5.98,-17.68 0,-5.98 2.6,-12.22 7.41,-16.38 4.68,-4.16 10.66,-6.37 18.46,-6.37 6.24,0 11.18,1.95 13.26,3.51 0.78,0.58 1.17,0.39 1.56,-0.13 l 0.78,-1.04 c 0.33,-0.46 0.52,-0.65 0.91,-0.65 0.65,0 0.78,0.39 0.78,0.91 l 0.65,13 c 0,0.52 0,0.85 -0.26,0.91 l -1.56,0.26 c -0.39,0.07 -0.52,-0.13 -0.65,-0.52 -0.91,-2.6 -2.6,-6.24 -5.2,-8.97 -2.21,-2.34 -5.85,-4.55 -10.79,-4.55 -4.03,0 -7.54,1.04 -11.05,5.07 -3.12,3.51 -5.33,8.97 -5.33,14.69 0,7.67 2.08,14.3 5.85,18.07 3.12,2.99 6.24,4.42 10.4,4.42 4.16,0 6.63,-0.52 8.84,-1.69 1.43,-0.78 1.56,-2.6 1.56,-5.98 v -4.75 c 0,-2.34 -0.65,-2.99 -2.34,-2.99 h -2.73 c -0.39,0 -0.52,-0.26 -0.52,-0.59 v -1.5 c 0,-0.39 0.13,-0.52 0.39,-0.52 0.78,0 3.9,0.19 9.23,0.19 5.46,0 7.67,-0.19 8.32,-0.19 0.52,0 0.65,0.13 0.65,0.46 v 1.62 c 0,0.39 -0.13,0.52 -0.52,0.52 h -2.21 c -1.17,0 -1.95,0.52 -1.95,2.41 z"
   id="path287"
   style="fill:#007833" />

		<path
   class="st0"
   d="m 494.85,86 c 0.07,3.51 0.2,9.88 0.2,11.05 0,3.38 1.17,4.68 2.6,5.07 1.04,0.26 2.6,0.52 5.07,0.52 1.17,0 4.16,-0.13 5.46,-0.26 1.17,-0.13 3.64,-0.78 5.33,-2.21 1.17,-1.04 4.81,-5.33 6.04,-6.89 0.26,-0.33 0.46,-0.39 0.71,-0.26 l 1.04,0.65 c 0.2,0.13 0.26,0.33 0.13,0.65 l -3.12,9.75 c -0.19,0.58 -0.65,0.98 -1.43,0.98 -0.65,0 -5.72,-0.2 -27.43,-0.2 -4.81,0 -7.15,0.2 -8.32,0.2 -0.39,0 -0.52,-0.13 -0.52,-0.52 v -1.56 c 0,-0.39 0.13,-0.52 0.65,-0.52 h 2.21 c 2.99,0 3.25,-0.39 3.25,-2.79 V 84.18 77.81 c 0,-5.33 -0.13,-13.39 -0.26,-14.3 -0.26,-1.75 -0.91,-2.27 -2.86,-2.27 h -2.47 c -0.26,0 -0.39,-0.13 -0.39,-0.46 v -1.69 c 0,-0.33 0.07,-0.45 0.39,-0.45 1.43,0 3.77,0.26 9.1,0.2 h 1.82 c 2.86,0 17.81,-0.13 20.67,-0.13 1.04,0 2.28,-0.07 2.6,-0.07 0.33,0 0.46,0.13 0.52,0.39 0.26,0.85 2.73,9.69 2.99,10.34 0.13,0.39 0.06,0.58 -0.2,0.71 l -1.17,0.52 c -0.2,0.06 -0.39,0 -0.59,-0.33 -0.26,-0.39 -5.59,-6.37 -7.15,-7.28 -1.37,-0.78 -3.12,-1.62 -4.94,-1.69 l -9.88,-0.26 -0.13,18.79 c 1.95,0 6.63,-0.13 7.41,-0.32 1.43,-0.26 2.21,-0.78 2.99,-2.34 0.39,-0.84 1.04,-2.47 1.04,-3.64 0,-0.39 0.26,-0.52 0.52,-0.52 l 1.69,0.13 c 0.26,0 0.46,0.13 0.39,0.52 -0.13,1.04 -0.13,5.33 -0.13,7.02 0,2.6 0.26,5.72 0.39,7.15 0,0.32 -0.13,0.39 -0.52,0.46 l -1.43,0.26 c -0.26,0.06 -0.39,-0.07 -0.52,-0.46 -0.26,-1.04 -0.71,-2.47 -1.04,-3.25 -0.58,-1.3 -1.82,-2.21 -3.25,-2.34 -2.34,-0.26 -5.46,-0.39 -7.54,-0.39 z"
   id="path289"
   style="fill:#007833" />

	</g>

	<path
   class="st0"
   d="m 38.95,109.2 c 0,0 1.39,0.25 3.52,-1.32 2.76,-1.99 3.51,-2.89 3.92,-4 0,0 0.35,-0.92 -1.66,-2.51 -2.25,-1.79 -9.01,-5.66 -9.01,-5.66 0.48,-0.27 1.94,0.05 3.2,-0.31 0,0 -1.52,-0.92 -3.19,-2.59 -1.67,-1.71 -1.99,-2.83 -1.99,-2.83 0.59,0.12 2.36,0.43 4.7,1.91 0,0 2.67,1.62 1.86,-0.49 -0.72,-1.89 -1.21,-2.07 -1.21,-2.07 0,0 4.56,0.42 8.77,1.31 4.17,0.89 9.7,4.45 11.57,2.32 1.88,-2.17 4.24,-5.86 -0.75,-9.24 C 53.66,80.29 51,79.93 47.64,79.05 44.27,78.18 43.77,78 40.61,77.46 c -3.2,-0.54 -4.34,-3.72 -4.34,-3.72 0,0 5.2,2.89 5.72,0.57 0.5,-2.36 -0.29,-4.05 -1.96,-5.75 -1.67,-1.7 -3,-3.57 -3,-3.57 0,0 0.16,0.34 2.86,0.7 2.66,0.37 2.81,2.39 2.66,0.37 -0.15,-1.99 -1.44,-3.86 -1.44,-3.86 0,0 1.9,1.18 4.76,2.7 2.85,1.54 5.98,4.93 7.32,3.43 1.37,-1.5 2.94,-2.1 0.82,-5.32 -2.45,-3.85 -4.42,-9.12 -4.42,-9.12 0.7,0.5 2.09,1.29 2.65,1.18 -0.01,-0.29 -1.08,-4.29 -1.76,-5.39 0,0 1.18,-0.16 3.15,1.38 2.01,1.54 2.01,1.54 2.01,1.54 0.13,-0.22 0.71,-1.33 0.7,-2.02 0,0 3.34,2.56 4.17,4.26 0.83,1.66 4.47,4.06 4.16,1.69 -0.31,-2.33 -1.31,-3.52 -1.31,-3.52 0.56,0.15 2.11,1.09 2.34,1.37 0,0 1.52,-0.32 0.54,-3.2 -0.98,-2.88 -1.29,-5.24 -1.29,-5.24 1.75,1.08 3.59,5.07 5.84,5.96 0.14,-0.76 -0.27,-2.4 -0.14,-2.87 0,0 2.56,2.41 2.37,6.78 -0.2,4.48 0.11,8.67 -0.58,12.39 -0.78,4.27 2.09,10.27 4.48,7.43 2.39,-2.81 3.04,-5.68 4.13,-9.53 1.31,-4.6 4.77,-7.33 4.77,-7.33 0,0 -1.13,2.68 -0.37,3.54 0.86,-1.68 1.49,-1.2 3.07,-3.17 3.72,-4.66 7.28,-6.46 7.28,-6.46 0,0 -1.88,2.17 -2.58,4.15 -0.69,2.02 0.22,5.54 1.23,3.86 1.25,-2.07 2.98,-2.97 2.98,-2.97 0,0 0.34,1.89 -2.15,7.38 -1.33,2.95 -5.27,6.24 -3.07,7.71 2.54,1.66 4.21,2.07 5.86,1.2 2.1,-1.15 3.38,-1.1 3.38,-1.1 -0.12,0.66 -0.99,1 -1.16,1.8 0.17,0.43 1.91,-1.35 3.85,-1.44 -2.46,4.67 -5.04,5.03 -4.92,6.15 0.81,0.54 2.58,0.27 3.5,1.22 0,0 -5.04,0.79 -7.75,2.11 -2.71,1.32 -6.19,4.92 -8.17,8.33 -2.46,4.18 -4.35,14.86 0.93,10.24 5.23,-4.67 10.12,-13.67 10.12,-13.67 0,0 -0.4,4.4 1.64,3.42 2,-0.99 6.37,-4.87 6.37,-4.87 0,0 -0.36,3.18 -2.46,7.1 -1.33,2.45 -2.22,4.11 -1.98,5.74 0.35,0.55 1.27,-1.46 6.51,-2.56 0,0 -2.37,3.54 -5.64,5.96 -3.58,2.64 -6.87,5.79 -7.62,8.46 -0.8,2.85 2.27,6.64 6.34,3.13 2.33,-1.95 4.34,-4.65 5.27,-6.85 0.96,-2.04 2.94,-6.03 4.11,-7.31 0.03,1.17 0.65,3.33 0.97,3.72 0.54,0.27 1.29,-0.69 5.42,-1.8 -0.04,4.84 -2.65,7.18 -2.05,7.86 0,0 0.58,0.81 2.3,0.37 2.58,-0.66 2.7,-0.48 2.7,-0.48 0,0 -3.45,4.73 -10.61,7.67 -3.86,1.57 -19.06,7.22 -16.66,16.19 0.5,1.85 7.41,12.89 17.56,13.44 l 1.76,-0.09 c 1.05,-0.15 1.5,-0.32 1.68,-0.08 0.18,0.22 0.14,0.55 0.34,1.72 0.31,1.86 -1.9,1.35 -6.39,0.27 -8.04,-1.97 -13.98,-10.47 -16.55,-14.21 0,0 -2.48,-3.19 -5.81,-5.09 -3.07,-1.74 -7.51,-2.83 -11.42,-2.86 -6.38,-0.05 -12.94,2.11 -16.03,2.19 0.86,-0.78 3.1,-1.33 3.88,-2.04 -1.23,-1.19 -7.04,-1.56 -8.64,-2.73 1.98,-1.75 6.43,-2.02 7.29,-2.86 -0.4,-0.65 -0.93,-2.19 -0.64,-3.05 0,0 1.53,1.17 6.13,1.26 3.37,0.06 6.88,0.36 8.61,-1.27 2.08,-1.98 2.53,-4.82 0.02,-6.54 -2.51,-1.71 -4.58,-2.59 -8.64,-2.29 -4.04,0.3 -17.3,3.58 -17.3,3.58 -3.48,0.65 -8.31,-2.52 -9.36,-3.55 z"
   id="path293"
   style="fill:#007833" />

</g>
  </g>
</svg>
